<svg xmlns="http://www.w3.org/2000/svg" width="801.591" height="596.485" viewBox="0 0 801.591 596.485">
  <g id="Group_27738" data-name="Group 27738" transform="translate(-595 -221.012)">
    <g id="Background_Complete" data-name="Background Complete" transform="translate(595 221.012)">
      <rect id="Rectangle_18374" data-name="Rectangle 18374" width="53.101" height="0.401" transform="translate(668.173 550.76)" fill="#ebebeb"/>
      <rect id="Rectangle_18375" data-name="Rectangle 18375" width="13.937" height="0.401" transform="translate(517.07 555.11)" fill="#ebebeb"/>
      <rect id="Rectangle_18376" data-name="Rectangle 18376" width="30.769" height="0.401" transform="translate(635.799 535.872)" fill="#ebebeb"/>
      <rect id="Rectangle_18377" data-name="Rectangle 18377" width="69.247" height="0.401" transform="translate(84.101 538.566)" fill="#ebebeb"/>
      <rect id="Rectangle_18378" data-name="Rectangle 18378" width="10.153" height="0.401" transform="translate(167.622 538.566)" fill="#ebebeb"/>
      <rect id="Rectangle_18379" data-name="Rectangle 18379" width="150.179" height="0.401" transform="translate(210.773 545.335)" fill="#ebebeb"/>
      <path id="Path_47291" data-name="Path 47291" d="M356.931,508.408H47.358a9.162,9.162,0,0,1-9.151-9.151V64.1a9.161,9.161,0,0,1,9.151-9.149H356.931A9.16,9.16,0,0,1,366.08,64.1V499.257A9.162,9.162,0,0,1,356.931,508.408ZM47.358,55.354a8.759,8.759,0,0,0-8.75,8.749V499.257a8.759,8.759,0,0,0,8.75,8.75H356.931a8.759,8.759,0,0,0,8.749-8.75V64.1a8.758,8.758,0,0,0-8.749-8.749Z" transform="translate(23.046 -54.953)" fill="#ebebeb"/>
      <path id="Path_47292" data-name="Path 47292" d="M573.226,508.408H263.654a9.161,9.161,0,0,1-9.149-9.151V64.1a9.159,9.159,0,0,1,9.149-9.149H573.226a9.161,9.161,0,0,1,9.153,9.149V499.257A9.163,9.163,0,0,1,573.226,508.408ZM263.654,55.354a8.758,8.758,0,0,0-8.749,8.749V499.257a8.759,8.759,0,0,0,8.749,8.75H573.226a8.761,8.761,0,0,0,8.752-8.75V64.1a8.76,8.76,0,0,0-8.752-8.749Z" transform="translate(153.513 -54.953)" fill="#ebebeb"/>
      <rect id="Rectangle_18380" data-name="Rectangle 18380" width="801.591" height="0.401" transform="translate(0 524.955)" fill="#ebebeb"/>
      <g id="Group_25796" data-name="Group 25796" transform="translate(348.742 41.027)">
        <g id="Group_25785" data-name="Group 25785" transform="translate(83.024 171.29)">
          <rect id="Rectangle_18381" data-name="Rectangle 18381" width="58.347" height="42.92" rx="2.376" fill="#e0e0e0"/>
          <rect id="Rectangle_18382" data-name="Rectangle 18382" width="26.25" height="14.556" transform="translate(4.292 3.701)" fill="#ebebeb"/>
          <g id="Group_25784" data-name="Group 25784" transform="translate(4.292 22.673)">
            <rect id="Rectangle_18383" data-name="Rectangle 18383" width="4.976" height="2.737" fill="#ebebeb"/>
            <rect id="Rectangle_18384" data-name="Rectangle 18384" width="4.976" height="2.737" transform="translate(0 4.603)" fill="#ebebeb"/>
            <rect id="Rectangle_18385" data-name="Rectangle 18385" width="4.976" height="2.737" transform="translate(0 9.206)" fill="#ebebeb"/>
            <rect id="Rectangle_18386" data-name="Rectangle 18386" width="4.976" height="2.737" transform="translate(0 13.809)" fill="#ebebeb"/>
            <rect id="Rectangle_18387" data-name="Rectangle 18387" width="4.976" height="2.737" transform="translate(7.091)" fill="#ebebeb"/>
            <rect id="Rectangle_18388" data-name="Rectangle 18388" width="4.976" height="2.737" transform="translate(7.091 4.603)" fill="#ebebeb"/>
            <rect id="Rectangle_18389" data-name="Rectangle 18389" width="4.976" height="2.737" transform="translate(7.091 9.206)" fill="#ebebeb"/>
            <rect id="Rectangle_18390" data-name="Rectangle 18390" width="4.976" height="2.737" transform="translate(7.091 13.809)" fill="#ebebeb"/>
            <rect id="Rectangle_18391" data-name="Rectangle 18391" width="4.976" height="2.737" transform="translate(14.182)" fill="#ebebeb"/>
            <rect id="Rectangle_18392" data-name="Rectangle 18392" width="4.976" height="2.737" transform="translate(14.182 4.603)" fill="#ebebeb"/>
            <rect id="Rectangle_18393" data-name="Rectangle 18393" width="4.976" height="2.737" transform="translate(14.182 9.206)" fill="#ebebeb"/>
            <rect id="Rectangle_18394" data-name="Rectangle 18394" width="4.976" height="2.737" transform="translate(14.182 13.809)" fill="#ebebeb"/>
            <rect id="Rectangle_18395" data-name="Rectangle 18395" width="4.976" height="2.737" transform="translate(21.274)" fill="#ebebeb"/>
            <rect id="Rectangle_18396" data-name="Rectangle 18396" width="4.976" height="2.737" transform="translate(21.274 4.603)" fill="#ebebeb"/>
            <rect id="Rectangle_18397" data-name="Rectangle 18397" width="4.976" height="2.737" transform="translate(21.274 9.206)" fill="#ebebeb"/>
            <rect id="Rectangle_18398" data-name="Rectangle 18398" width="4.976" height="2.737" transform="translate(21.274 13.809)" fill="#ebebeb"/>
          </g>
          <rect id="Rectangle_18399" data-name="Rectangle 18399" width="14.307" height="39.219" transform="translate(39.934)" fill="#f0f0f0"/>
          <rect id="Rectangle_18400" data-name="Rectangle 18400" width="14.307" height="16.297" transform="translate(39.934 10.979)" fill="#e6e6e6"/>
          <path id="Path_47293" data-name="Path 47293" d="M294.227,207.794l2.737-9.02h9.579l1.99,9.02Z" transform="translate(-254.293 -180.518)" fill="#e0e0e0"/>
        </g>
        <g id="Group_25786" data-name="Group 25786" transform="translate(151.872)">
          <path id="Path_47294" data-name="Path 47294" d="M523.285,80.544V565.432H420.2l.2-.79h87.545V94.244H325.963v470.4h56.324l37.913.79H312.262V80.544Z" transform="translate(-312.262 -80.544)" fill="#3f704d"/>
          <path id="Path_47295" data-name="Path 47295" d="M502.792,89.09v470.4H415.247l-.2.79-37.913-.79H320.808V89.09Z" transform="translate(-307.108 -75.389)" fill="#f0f0f0"/>
          <rect id="Rectangle_18401" data-name="Rectangle 18401" width="181.984" height="470.398" transform="translate(13.7 13.7)" fill="#eafcff"/>
        </g>
        <path id="Path_47296" data-name="Path 47296" d="M481.6,89.09V216.071L394.055,559.488l-.2.79-37.913-.79L477.422,89.09Z" transform="translate(-134.044 -75.389)" fill="#fff"/>
        <rect id="Rectangle_18402" data-name="Rectangle 18402" width="21.344" height="70.239" transform="translate(165.57 199.245)" fill="#fff"/>
        <path id="Path_47297" data-name="Path 47297" d="M442.3,89.089,320.807,559.5l37.913.783L478.837,89.089Z" transform="translate(-155.237 -75.39)" fill="#fff"/>
        <g id="Group_25795" data-name="Group 25795" transform="translate(0 326.418)">
          <g id="Group_25794" data-name="Group 25794" transform="translate(0 3.783)">
            <g id="Group_25787" data-name="Group 25787" transform="translate(69.447 33.074)">
              <path id="Path_47298" data-name="Path 47298" d="M261.424,365.643a.467.467,0,0,1-.467-.452c-1.408-41.782,11.328-57.724,11.456-57.88a.467.467,0,1,1,.721.593c-.127.155-12.638,15.878-11.243,57.256a.47.47,0,0,1-.452.483Z" transform="translate(-260.849 -307.14)" fill="#e0e0e0"/>
            </g>
            <g id="Group_25790" data-name="Group 25790" transform="translate(75.505 26.781)">
              <g id="Group_25788" data-name="Group 25788" transform="translate(0 28.304)">
                <path id="Path_47299" data-name="Path 47299" d="M265.1,357.362l-.043,0a.47.47,0,0,1-.423-.508c1.116-12.219,5.5-21.553,13.029-27.743,11.745-9.653,27.254-8.163,27.408-8.147a.467.467,0,0,1,.417.513.472.472,0,0,1-.513.417c-.152-.018-15.29-1.46-26.725,7.945-7.325,6.025-11.593,15.142-12.684,27.1A.468.468,0,0,1,265.1,357.362Z" transform="translate(-264.628 -320.87)" fill="#e0e0e0"/>
              </g>
              <g id="Group_25789" data-name="Group 25789" transform="translate(17.167)">
                <path id="Path_47300" data-name="Path 47300" d="M288.913,331.875c-2.262-4.553-21.018-7.66-10.286-17.544s10.7,11.3,15.475,11.217c6.688-.114,5.388-28.439,16.417-21.128s-10.9,18.871-7.384,24.105c3.226,4.808,22.688-10.746,23.126-1.242s-20.732,2.471-22.087,8.2c-1.053,4.46,19.807,8.521,10.554,14.99s-12.216-13.161-17.31-11.888c-3.87.967,1.305,17.095-6.494,14.578S291.292,336.664,288.913,331.875Z" transform="translate(-275.336 -303.215)" fill="#3f704d"/>
              </g>
            </g>
            <g id="Group_25793" data-name="Group 25793">
              <g id="Group_25791" data-name="Group 25791" transform="translate(42.126 36.858)">
                <path id="Path_47301" data-name="Path 47301" d="M264.61,369.422a.467.467,0,0,1-.463-.42c-3.727-36.338-20.081-58.534-20.245-58.753a.468.468,0,0,1,.749-.561c.165.223,16.673,22.626,20.426,59.22a.466.466,0,0,1-.418.511Z" transform="translate(-243.807 -309.501)" fill="#e0e0e0"/>
              </g>
              <g id="Group_25792" data-name="Group 25792">
                <path id="Path_47302" data-name="Path 47302" d="M264.152,337.9c-5.658,4.7-3.783,32.158-21.281,20.335s12.348-18.836,10.64-25.537c-2.389-9.383-41.853,1.892-35.233-16.08s30.214,9.056,36.415,2.365c5.7-6.145-22.7-28.375-9.457-32.158s10.39,28.38,18.916,28.375c6.634,0,5.4-30.739,17.6-19.862s-14.466,21.593-10.975,28.343c2.653,5.13,23.645-7.535,22.7,4.289S270.1,332.948,264.152,337.9Z" transform="translate(-217.531 -286.51)" fill="#00a36c"/>
              </g>
            </g>
            <path id="Path_47303" data-name="Path 47303" d="M293.284,386.113l3.841-45.133H242.5l3.841,45.133a23.555,23.555,0,0,0,23.469,21.558h0A23.555,23.555,0,0,0,293.284,386.113Z" transform="translate(-202.468 -253.655)" fill="#f7d2c6"/>
          </g>
          <path id="Path_47304" data-name="Path 47304" d="M276.971,335.535c5.659,4.7,3.784,32.158,21.281,20.335s-12.346-18.834-10.64-25.537c2.39-9.383,41.854,1.892,35.233-16.08s-30.214,9.056-36.415,2.365c-5.7-6.145,22.7-28.375,9.459-32.158s-10.392,28.38-18.918,28.375c-6.634,0-5.4-30.739-17.6-19.862s14.466,21.593,10.975,28.344c-2.652,5.13-23.645-7.537-22.7,4.287S271.02,330.588,276.971,335.535Z" transform="translate(-199.382 -284.15)" fill="#d0e7cf"/>
        </g>
      </g>
      <g id="Group_25798" data-name="Group 25798" transform="translate(62.362 303.079)">
        <rect id="Rectangle_18403" data-name="Rectangle 18403" width="220.673" height="220.673" fill="rgba(220,229,230,0.47)"/>
        <rect id="Rectangle_18404" data-name="Rectangle 18404" width="188.631" height="203.392" transform="translate(16.88 16.88)" fill="#eafcff"/>
        <rect id="Rectangle_18405" data-name="Rectangle 18405" width="6.374" height="23.125" transform="translate(28.249 101.433)" fill="#e6e6e6"/>
        <g id="Group_25797" data-name="Group 25797" transform="translate(25.062 90.696)">
          <rect id="Rectangle_18406" data-name="Rectangle 18406" width="6.374" height="45.424" fill="#fff"/>
          <rect id="Rectangle_18407" data-name="Rectangle 18407" width="9.562" height="6.891" fill="#fff"/>
          <rect id="Rectangle_18408" data-name="Rectangle 18408" width="9.562" height="6.891" transform="translate(0 38.5)" fill="#fff"/>
        </g>
      </g>
    </g>
    <g id="Shadow" transform="translate(684.957 781.19)">
      <ellipse id="_Path_" data-name="&lt;Path&gt;" cx="310.84" cy="18.153" rx="310.84" ry="18.153" transform="translate(0 0)" fill="#d0dee0"/>
    </g>
    <g id="Character" transform="translate(1069.168 349.92)">
      <g id="Group_25814" data-name="Group 25814" transform="translate(0 0)">
        <g id="_group_" data-name="&lt;group&gt;">
          <path id="Path_47307" data-name="Path 47307" d="M439.733,193.12a15.879,15.879,0,0,1-10.946,10.294l-.079.021a53.219,53.219,0,0,1-6.716,1.239c-.361.058-.739.1-1.1.144-7.668.909-15.528.731-23.2,1.839-.378.058-.771.117-1.149.176a83.062,83.062,0,0,1-11.567,1.5,24.474,24.474,0,0,1-2.584-.091,16.037,16.037,0,0,1-9.379-3.633c-3.388-3.009-4.776-7.5-5.695-12.011,2.313-.72,4.867-1.509,7.676-2.429,20.389-6.7-1.865-17.919,5.356-35.854,10.081-25.069,51.276-23.3,50.59-6.191C443.839,151.319,445.683,176.029,439.733,193.12Z" transform="translate(-252.613 -135.361)" fill="#263238"/>
          <g id="Group_25802" data-name="Group 25802" transform="translate(119.485 17.041)">
            <path id="Path_47308" data-name="Path 47308" d="M381.147,156.669c-.936,3.912-1.247,7.99-2.655,11.759s-4.253,7.344-8.2,8.144c5.94,2.64,13.273-.261,17.292-5.371s5.286-11.878,5.417-18.379c.03-1.5.271-3.315-.794-4.377C384.639,140.913,382.084,152.755,381.147,156.669Z" transform="translate(-370.297 -145.99)" fill="#263238"/>
          </g>
          <g id="Group_25807" data-name="Group 25807" transform="translate(0 73.613)">
            <g id="Group_25804" data-name="Group 25804" transform="translate(0 10.501)">
              <path id="Path_47309" data-name="Path 47309" d="M413.823,198.372c-.563.534-1.065.992-1.552,1.446-.414.375-.826.75-1.268,1.132-.931.821-1.853,1.561-2.8,2.339-1.871,1.488-3.771,2.982-5.712,4.362-.388.276-.792.555-1.186.8-.385.29-.778.552-1.172.8-.322.229-.646.444-.96.641-2.905,1.927-5.856,3.726-8.894,5.419-2.185,1.2-4.422,2.321-6.687,3.371-2.111.981-4.269,1.9-6.443,2.738l-3.423,1.236c-1.172.393-2.342.723-3.487,1.095l-1.763.529-1.9.483c-1.255.3-2.515.576-3.747.781a107.939,107.939,0,0,1-28.747.282c-4.644-.492-9.255-1.178-13.813-1.972-3.211-.556-6.384-1.215-9.569-2q-2-.474-4.022-1.039l1.393-7.173c1.271.114,2.557.224,3.844.333,3.144.26,6.328.5,9.476.646,4.438.2,8.885.439,13.308.438a117.42,117.42,0,0,0,25.543-2.227c.976-.224,1.929-.489,2.878-.77l1.377-.441,1.473-.571c.972-.378,1.935-.662,2.95-1.127l2.849-1.292a124.214,124.214,0,0,0,11.282-5.888c2.522-1.5,5.005-3.094,7.444-4.758.484-.33.967-.673,1.448-1.018q.45-.289.885-.624c.311-.21.632-.439.938-.665l.281-.205c1.646-1.172,3.243-2.426,4.826-3.676l2.434-2.022c.782-.662,1.64-1.4,2.262-1.951l7.6,7.819Z" transform="translate(-289.183 -187.828)" fill="#ffc3bd"/>
              <g id="Group_25803" data-name="Group 25803" transform="translate(0 14.37)">
                <path id="Path_47310" data-name="Path 47310" d="M316.3,206.112l-14.279-4.431,2.62,14.23s7.655-.034,11.315-4.474Z" transform="translate(-291.996 -193.842)" fill="#ffc3bd"/>
                <path id="Path_47311" data-name="Path 47311" d="M295.767,204.6l2.737,9.269,9.905,2.044-2.619-14.23Z" transform="translate(-295.767 -193.842)" fill="#ffc3bd"/>
                <path id="Path_47312" data-name="Path 47312" d="M303.717,208.638s-2.589-4.074-2.426-8.3c.148-3.819,2.313-3.545,2.313-3.545s-.409,4.526,5.526,12.181l.143.2Z" transform="translate(-292.439 -196.791)" fill="#ffc3bd"/>
              </g>
            </g>
            <g id="Group_25805" data-name="Group 25805" transform="translate(102.443)">
              <path id="Path_47313" data-name="Path 47313" d="M392.314,198.386c-1.233,3.724-5.871,7.2-10.727,9.935a88.6,88.6,0,0,1-11.551,5.388c-.816.313-1.291.483-1.291.483l-.569-.991-7.3-12.9-1.206-2.137s.39-.4,1.063-1.069c2.673-2.605,9.858-9.44,16.061-13.228,3.022-1.831,5.805-2.935,7.715-2.487C393.169,183.364,394.735,191.149,392.314,198.386Z" transform="translate(-359.667 -181.278)" fill="#aacca9"/>
              <path id="Path_47314" data-name="Path 47314" d="M392.314,198.386c-1.233,3.724-5.871,7.2-10.727,9.935a88.6,88.6,0,0,1-11.551,5.388c-.816.313-1.291.483-1.291.483l-.569-.991-7.3-12.9-1.206-2.137s.39-.4,1.063-1.069c2.673-2.605,9.858-9.44,16.061-13.228,3.022-1.831,5.805-2.935,7.715-2.487C393.169,183.364,394.735,191.149,392.314,198.386Z" transform="translate(-359.667 -181.278)" fill="#aacca9" opacity="0.3" style="isolation: isolate"/>
            </g>
            <g id="Group_25806" data-name="Group 25806" transform="translate(101.326 15.448)">
              <path id="Path_47315" data-name="Path 47315" d="M370.457,207.9a1.255,1.255,0,0,1-.64,1.486,1.288,1.288,0,0,1-1.674-.441l-.507-.912-7.229-12.92-1.273-2.293a1.279,1.279,0,0,1,.487-1.747l.014,0a1.347,1.347,0,0,1,.33-.122,1.314,1.314,0,0,1,1.183.335,1.15,1.15,0,0,1,.223.292l1.138,2.044,7.258,12.976.608,1.09A1.088,1.088,0,0,1,370.457,207.9Z" transform="translate(-358.97 -190.914)" fill="#d0e7cf"/>
            </g>
          </g>
          <path id="Path_47316" data-name="Path 47316" d="M441.639,181.349c5.109,2.35,5.738,3.707,4.933,7.4-1.566,7.171-2.854,13.516-3.913,19.216-.255,1.376-.5,2.722-.723,4.021-.053.245-.09.489-.127.733v.016c-.051.26-.088.489-.141.734-.063.382-.125.763-.2,1.13-5.058,11.638-7.128,25.8-5.815,46.656.1,1.576.128,3.184.2,4.822l-2.6.016-2.628.018-17.159.043-2.613.016-20.03.13-2.612.032-5.678.034c-.154-.891-.29-1.752-.442-2.613v-.014c-1.462-8.728-2.695-16.522-3.715-23.458q-.871-5.94-1.56-11.064s-8.561-10.559-5.432-17.034c1.839-3.8,2.69-27.055,3.019-28.054.317-.893.587-.994.587-.994,1.568-.343,3.152-.673,4.736-.971q6.991-1.409,14.073-2.366c1.648-.224,3.282-.434,4.93-.614a178.256,178.256,0,0,1,19.5-.446c.41,0,.806,0,1.217.034,1.582.05,3.179.13,4.761.226,1.889.1,3.792.247,5.666.407a72.707,72.707,0,0,1,7.517.8S441.617,181.34,441.639,181.349Z" transform="translate(-250.569 -109.254)" fill="#d0e7cf"/>
          <path id="Path_47317" data-name="Path 47317" d="M406.842,161.138c-1.332,8.266-2.432,23.341,3.5,28.623,0,0-3.044,17.792-18.053,20.479-7.25-1.816-7.445-19.609-7.445-19.609,9.023-2.511,6-11.519,6.65-20.641Z" transform="translate(-242.036 -119.813)" fill="#ffc3bd"/>
          <path id="Path_47318" data-name="Path 47318" d="M387.893,161.14c1.537,6.535,3.24,17.5.893,24.511,4.83-1.015,11.924-4.858,12.93-9.056a54.146,54.146,0,0,0,.167-8.638Z" transform="translate(-240.198 -119.812)" opacity="0.2" style="isolation: isolate"/>
          <path id="Path_47319" data-name="Path 47319" d="M420.392,162.453c-1.8,13.621-2.265,19.416-9.658,25.948-11.124,9.824-27.448,4.638-29.76-9.225-2.084-12.494,1.2-32.644,14.971-37.159a18.741,18.741,0,0,1,24.447,20.436Z" transform="translate(-244.717 -131.922)" fill="#ffc3bd"/>
          <path id="Path_47320" data-name="Path 47320" d="M418.009,147.325c-8.385,9.186-35.014,10.9-39.06,8.365,8.183-11.4,20.8-17.848,27.976-16.346S418.009,147.325,418.009,147.325Z" transform="translate(-245.593 -133.089)" fill="#263238"/>
          <g id="Group_25808" data-name="Group 25808" transform="translate(177.783 3.722)">
            <path id="Path_47321" data-name="Path 47321" d="M407,143.305a.41.41,0,0,1-.117,0c-.075.1-.138.208-.22.3Z" transform="translate(-406.661 -134.294)" fill="#263238"/>
            <path id="Path_47322" data-name="Path 47322" d="M407.105,143.172l-.234.212A.348.348,0,0,0,407.105,143.172Z" transform="translate(-406.534 -134.372)" fill="#263238"/>
            <path id="Path_47323" data-name="Path 47323" d="M406.856,143.341c.026-.034.05-.069.075-.1-.077.032-.151.072-.229.1C406.75,143.363,406.8,143.341,406.856,143.341Z" transform="translate(-406.636 -134.332)" fill="#263238"/>
            <path id="Path_47324" data-name="Path 47324" d="M407.685,137.683a8.723,8.723,0,0,1-.84,8.906,5.03,5.03,0,0,0,.84-8.906Z" transform="translate(-406.55 -137.683)" fill="#263238"/>
          </g>
          <path id="Path_47325" data-name="Path 47325" d="M411.782,165.495a10.043,10.043,0,0,1-6.371,4.284c-3.447.662-4.891-2.487-3.7-5.6,1.069-2.81,4.184-6.475,7.517-5.815a4.518,4.518,0,0,1,2.549,7.126Z" transform="translate(-232.11 -121.531)" fill="#ffc3bd"/>
          <path id="Path_47326" data-name="Path 47326" d="M403.069,145.813c-2.067,2.416-1.842,5.877-1.8,9.056.127,9.3,1.233,20.973-5.869,25.045,8.4-2.342,15.12-6.307,19.4-13.9,3.384-6,3.242-9.666.643-16.094C413.515,145.143,407.733,140.365,403.069,145.813Z" transform="translate(-235.67 -130.519)" fill="#263238"/>
          <path id="Path_47327" data-name="Path 47327" d="M407.787,186.133s-.583,24.99,1.666,36.065,3.893,8.322,3.893,8.322,1.081-17.2,3.158-22S407.787,186.133,407.787,186.133Z" transform="translate(-228.24 -104.736)" opacity="0.1" style="isolation: isolate"/>
          <g id="Group_25810" data-name="Group 25810" transform="translate(181.448 72.299)">
            <g id="Group_25809" data-name="Group 25809" transform="translate(6.601 28.085)">
              <path id="Path_47328" data-name="Path 47328" d="M428.882,199.75c-.143,1.688-.247,3.761-.337,5.667s-.141,3.912-.139,5.876c.026,3.926.014,7.862.3,11.763a121.043,121.043,0,0,0,3.564,22.868c.519,1.767,1.053,3.655,1.663,5.371s1.331,3.487,2.078,5.26c1.552,3.567,3.327,7.187,5.149,10.788,3.662,7.19,7.57,14.437,11.421,21.645l-6.147,4.324a210.163,210.163,0,0,1-15.431-20.07c-2.382-3.5-4.662-7.1-6.777-10.937-1.057-1.932-2.087-3.886-3.017-6.036s-1.618-4.192-2.408-6.305a112.7,112.7,0,0,1-5.156-25.8,127.687,127.687,0,0,1-.583-13.008c-.018-2.19.056-4.325.168-6.494s.242-4.263.519-6.679Z" transform="translate(-413.064 -197.977)" fill="#ffc3bd"/>
              <path id="Path_47329" data-name="Path 47329" d="M438.75,253.794l10.413,7.3-12.716,8.144s-5.653-7.694-3.121-15.519Z" transform="translate(-401.237 -164.356)" fill="#ffc3bd"/>
              <path id="Path_47330" data-name="Path 47330" d="M451.277,270.331,440.354,276.1l-5.321-9.629,12.705-8.158Z" transform="translate(-399.813 -161.581)" fill="#ffc3bd"/>
            </g>
            <path id="Path_47331" data-name="Path 47331" d="M433.839,191.789c2.4,18.068-3.016,21.006-3.016,21.006l-16.914,1.627s-8.319-25.186-3.416-31.35C415.6,176.649,432.668,183.028,433.839,191.789Z" transform="translate(-408.947 -180.458)" fill="#aacca9"/>
            <path id="Path_47333" data-name="Path 47333" d="M431.052,200.924h0a1.314,1.314,0,0,1-1.19,1.428l-.008,0-17.2,1.579a1.316,1.316,0,0,1-1.43-1.191v-.008h0a1.3,1.3,0,0,1,1.156-1.425l.042,0,17.183-1.57A1.332,1.332,0,0,1,431.052,200.924Z" transform="translate(-407.575 -168.834)" fill="#d0e7cf"/>
          </g>
          <path id="Path_47334" data-name="Path 47334" d="M378.716,232.773l-2.345,5.121c-.181.4.252.8.941.75l55.167-2.5c.513-.008.92-.292.946-.592l.325-5.048c.026-.351-.425-.636-.984-.614l-53.126,2.382A1.1,1.1,0,0,0,378.716,232.773Z" transform="translate(-247.173 -78.342)" fill="#ff4040"/>
          <path id="Path_47335" data-name="Path 47335" d="M383.511,238.2l-1.512.05c-.306.011-.542-.138-.529-.314l.483-6.557c-.055-.172.265-.357.571-.369l1.528-.055c.29-.006.54.138.513.319l-.466,6.552A.575.575,0,0,1,383.511,238.2Z" transform="translate(-244.073 -77.701)" fill="#407bff"/>
          <path id="Path_47336" data-name="Path 47336" d="M409.67,237.259l-1.512.05c-.306.011-.542-.138-.534-.329l.483-6.557c-.055-.172.265-.359.569-.37l1.529-.055a.387.387,0,0,1,.518.335l-.468,6.552C410.247,237.076,409.976,237.248,409.67,237.259Z" transform="translate(-228.297 -78.289)" fill="#407bff"/>
          <path id="Path_47337" data-name="Path 47337" d="M397.676,237.737l-1.529.055a.386.386,0,0,1-.518-.335l.467-6.552c-.053-.172.285-.348.592-.358l1.507-.066c.306-.011.542.138.534.329l-.483,6.557C398.237,237.559,397.924,237.657,397.676,237.737Z" transform="translate(-235.533 -77.987)" fill="#407bff"/>
          <path id="Path_47338" data-name="Path 47338" d="M393.239,156.677c-.08,1.106-.739,1.951-1.454,1.919s-1.258-.992-1.178-2.1.737-1.951,1.452-1.921S393.318,155.57,393.239,156.677Z" transform="translate(-238.566 -123.771)" fill="#263238"/>
          <path id="Path_47339" data-name="Path 47339" d="M385.4,156.135c-.095,1.111-.739,1.951-1.469,1.924s-1.26-.992-1.17-2.119.723-1.946,1.453-1.919S385.521,155,385.4,156.135Z" transform="translate(-243.299 -124.107)" fill="#263238"/>
          <path id="Path_47340" data-name="Path 47340" d="M384.842,154.41l-2.6-.893S383.427,155.58,384.842,154.41Z" transform="translate(-243.607 -124.41)" fill="#263238"/>
          <path id="Path_47341" data-name="Path 47341" d="M388.073,156.68a30.2,30.2,0,0,1-4.468,6.823,4.781,4.781,0,0,0,3.909,1.012Z" transform="translate(-242.785 -122.502)" fill="#ed847e"/>
          <path id="Path_47342" data-name="Path 47342" d="M390.449,165.765a10.162,10.162,0,0,1-2.047.048.28.28,0,0,1-.265-.292v0a.3.3,0,0,1,.3-.248,8.842,8.842,0,0,0,7.474-2.967.279.279,0,0,1,.359-.114.246.246,0,0,1,.133.321l-.019.038A8.967,8.967,0,0,1,390.449,165.765Z" transform="translate(-240.051 -119.195)" fill="#263238"/>
          <path id="Path_47343" data-name="Path 47343" d="M397.527,152.483a.543.543,0,0,1-.494-.205,5.273,5.273,0,0,0-4.353-2.142.557.557,0,0,1-.588-.5.541.541,0,0,1,.491-.587l.011,0a6.338,6.338,0,0,1,5.289,2.549.557.557,0,0,1-.085.766A.619.619,0,0,1,397.527,152.483Z" transform="translate(-237.667 -127.108)" fill="#263238"/>
          <path id="Path_47344" data-name="Path 47344" d="M381.838,151.523a.525.525,0,0,1-.521-.127.543.543,0,0,1-.022-.765l0,0a6.337,6.337,0,0,1,5.509-2.02.524.524,0,0,1,.447.59l-.006.043a.54.54,0,0,1-.635.426h0a5.3,5.3,0,0,0-4.526,1.706A.53.53,0,0,1,381.838,151.523Z" transform="translate(-244.267 -127.402)" fill="#263238"/>
          <g id="Group_25813" data-name="Group 25813" transform="translate(86.478 157.53)">
            <path id="Path_47345" data-name="Path 47345" d="M365.243,409.147a.487.487,0,0,0-.091-.027c-.383-.109-1.518-.418-2.818-.675-2.1-.428-4.644-.749-5.422-.006a.862.862,0,0,0-.228.9,1.939,1.939,0,0,0,1.052,1.376,5.341,5.341,0,0,0,3.3.247,19.967,19.967,0,0,0,3.489-1.018,5.436,5.436,0,0,0,.673-.282l.016,0a.093.093,0,0,0,.059-.016.236.236,0,0,0,.157-.265A.225.225,0,0,0,365.243,409.147Zm-7.177,1.058a1.4,1.4,0,0,1-.779-1.021.356.356,0,0,1,.093-.383,1.026,1.026,0,0,1,.614-.234l0,.047a20.1,20.1,0,0,1,6.392.806C362.708,410.041,359.551,410.987,358.065,410.2Z" transform="translate(-345.527 -128.444)" fill="#407bff"/>
            <g id="Group_25812" data-name="Group 25812">
              <path id="Path_47346" data-name="Path 47346" d="M378.994,423.466l-13.257.763-2.811-33.265,13.241-.767Z" transform="translate(-341.736 -139.179)" fill="#ffc3bd"/>
              <path id="Path_47347" data-name="Path 47347" d="M438.751,408.193,425.9,413.137,414.853,382.9l12.85-4.927Z" transform="translate(-310.414 -146.553)" fill="#ffc3bd"/>
              <path id="Path_47348" data-name="Path 47348" d="M426.072,402.936l12.109-9.728a1.114,1.114,0,0,1,1.457.055l10.35,9.379a2.21,2.21,0,0,1,.013,3.125,2.263,2.263,0,0,1-.2.176c-4.272,3.312-6.515,4.705-11.78,8.991-3.283,2.69-11.293,10.406-15.828,14.034s-9.7-1.56-8.078-3.46c7.006-8.63,9.781-15.775,10.7-20.449A3.666,3.666,0,0,1,426.072,402.936Z" transform="translate(-311.043 -137.51)" fill="orchid"/>
              <path id="Path_47349" data-name="Path 47349" d="M371.987,408.446l16.186-2.674a1.377,1.377,0,0,1,1.494.794l5.635,12.229a2.049,2.049,0,0,1-1.549,2.9c-5.7.98-8.4,1.363-15.524,2.578-4.4.72-16.971,4.909-23.065,4.215s-6.536-6.823-4-7.094c11.326-1.206,15.87-7.915,18.73-11.66A3.351,3.351,0,0,1,371.987,408.446Z" transform="translate(-349.708 -129.797)" fill="orchid"/>
              <path id="Path_47350" data-name="Path 47350" d="M362.924,390.972l1.453,17.14,13.371.594-1.568-18.5Z" transform="translate(-341.737 -139.171)" opacity="0.2" style="isolation: isolate"/>
              <path id="Path_47351" data-name="Path 47351" d="M428.532,380.2l-12.853,4.943,5.709,15.573,12.85-4.927Z" transform="translate(-309.916 -145.21)" opacity="0.2" style="isolation: isolate"/>
              <g id="Group_25811" data-name="Group 25811" transform="translate(10.391 0.608)">
                <path id="Path_47352" data-name="Path 47352" d="M390.216,235.45s-32.549,72.5-33.939,132.864c-.933,40.434,5.954,124.263,5.954,124.263l23.362,4.925s1.246-85.9,4.236-119.073C394.939,321.657,431.319,234,431.319,234Z" transform="translate(-356.19 -234.001)" fill="#6c2469"/>
              </g>
              <path id="Path_47354" data-name="Path 47354" d="M395.587,251.64l4.354,16.62a654.563,654.563,0,0,0-18.454,62.915C376.428,299.578,389.519,265.811,395.587,251.64Z" transform="translate(-331.227 -222.754)" opacity="0.2" style="isolation: isolate"/>
              <path id="Path_47355" data-name="Path 47355" d="M357.691,401.514l29.665,2.271.415-11.277-31.178-1.285Z" transform="translate(-345.556 -138.56)" fill="#0b3d48"/>
              <path id="Path_47356" data-name="Path 47356" d="M385.745,235.389s-6.631,82.432,5.553,135.195c9.84,42.614,45.091,112.07,45.091,112.07l16.07-10.24s-12.575-54.234-20.606-82.9c-19.7-70.32,15.8-110.366-2.238-155.889Z" transform="translate(-329.058 -233.622)" fill="#6c2469"/>
              <path id="Path_47358" data-name="Path 47358" d="M416.4,397.284l22.494-8.1-1.97-9.388-24.976,9.835Z" transform="translate(-312.164 -145.454)" fill="#0b3d48"/>
              <path id="Path_47359" data-name="Path 47359" d="M423.747,400.371c-.014-.014-.014-.014-.03-.014a.5.5,0,0,0-.077-.058.376.376,0,0,0-.183.006c-.12.035-.467.154-.946.308-.406.151-.93.335-1.454.552h-.014c-1.467.63-3.076,1.491-3.347,2.427a1.088,1.088,0,0,0,.279,1.039,2.024,2.024,0,0,0,1.087.691,1.772,1.772,0,0,0,.486-.048,3.8,3.8,0,0,0,2.108-1.38l.014-.016a14.5,14.5,0,0,0,2.062-3.11.948.948,0,0,0,.058-.109.058.058,0,0,0,.013-.047.139.139,0,0,0,.013-.075A.229.229,0,0,0,423.747,400.371Zm-.765.71c-.014,0-.014,0-.029.016-.314.558-.616,1.071-.919,1.507a4.834,4.834,0,0,1-2.519,2.23,1.241,1.241,0,0,1-1.143-.521.553.553,0,0,1-.17-.511c.257-.9,2.5-1.911,4.149-2.5.21-.083.42-.151.6-.2a.108.108,0,0,1,.027-.061Z" transform="translate(-308.72 -133.09)" fill="#407bff"/>
              <path id="Path_47360" data-name="Path 47360" d="M423.909,401.227a.5.5,0,0,0-.077-.058,9.15,9.15,0,0,0-.8-.609c-1.06-.753-2.908-1.888-4.252-1.688a1.708,1.708,0,0,0-1.19.741,1.1,1.1,0,0,0-.027,1.367,3.143,3.143,0,0,0,1.853.891,10.268,10.268,0,0,0,1.815.164h.014a13.266,13.266,0,0,0,1.348-.077,11.582,11.582,0,0,0,1.238-.257.339.339,0,0,0,.088-.064.948.948,0,0,0,.058-.109.058.058,0,0,0,.013-.047.139.139,0,0,0,.013-.075A.271.271,0,0,0,423.909,401.227Zm-5.9-.582a.567.567,0,0,1,.035-.715,1.1,1.1,0,0,1,.818-.515,2.487,2.487,0,0,1,.746.035,9.68,9.68,0,0,1,3.2,1.634c.109.072.218.159.327.247a3.961,3.961,0,0,1-.407.059C421.113,401.629,418.63,401.414,418.011,400.645Z" transform="translate(-308.913 -133.96)" fill="#407bff"/>
              <path id="Path_47361" data-name="Path 47361" d="M364.65,410.712a4.685,4.685,0,0,0-.213-.463c-.656-1.374-2.708-5.266-5.337-4.458-.766.224-.949.656-.938.975.032.925,1.61,2.16,3.253,3.075a18.844,18.844,0,0,0,2.054.975c.154.04.308.1.431.136s.261.083.383.109l.016,0,.106.027a.554.554,0,0,0,.194-.1A.286.286,0,0,0,364.65,410.712Zm-5.927-3.952c-.018-.075-.024-.273.516-.43l.226-.067c2.039-.316,3.777,2.858,4.4,4.128C361.79,409.705,358.759,407.746,358.723,406.76Z" transform="translate(-344.61 -129.839)" fill="#407bff"/>
            </g>
          </g>
          <path id="Path_47362" data-name="Path 47362" d="M392.684,154.958l-2.6-.893S391.288,156.191,392.684,154.958Z" transform="translate(-238.877 -124.079)" fill="#263238"/>
        </g>
      </g>
    </g>
    <g id="Fingerprint" transform="translate(671.119 277.504)">
      <g id="Group_25816" data-name="Group 25816" transform="translate(59.191 14.351)">
        <g id="Group_25815" data-name="Group 25815">
          <path id="Path_47363" data-name="Path 47363" d="M221.51,124.519l3.96.723-3.27-2.531c-.879-.68-1.77-1.347-2.661-2l-.208-.154-.247-.046c-20.309-3.909-45.04-11.068-73.5-21.281l-.249-.088-.25.034q-1.416.19-2.825.463l-3.551.689,3.556,1.291C173.283,112.875,199.947,120.578,221.51,124.519Z" transform="translate(-51.646 -99.142)" fill="orchid"/>
          <path id="Path_47364" data-name="Path 47364" d="M241.99,135.594l3.194.752-2.32-2.43c-.6-.632-1.231-1.25-1.874-1.868l-.228-.218-.3-.072c-28.351-6.735-64.217-16.6-106.6-29.329l-.375-.112-.337.152q-.931.421-1.855.882l-2.28,1.14,2.588.778C175.844,118.564,212.983,128.768,241.99,135.594Z" transform="translate(-57.491 -97.227)" fill="orchid"/>
          <path id="Path_47365" data-name="Path 47365" d="M260.188,148l3.141,1.119-2.07-2.673c-.308-.4-.62-.786-.931-1.172l-.41-.513-.035-.406-.7-.248c-24.511-8.657-67.667-22.055-134.055-36.715l-.442-.1-.35.248c-.487.351-.964.7-1.448,1.082l-1.72,1.342,2.264.5C191.485,125.449,235.362,139.145,260.188,148Z" transform="translate(-62.225 -94.227)" fill="orchid"/>
          <path id="Path_47366" data-name="Path 47366" d="M276.7,162.162l3.208,1.645-1.938-3.049c-.465-.733-.93-1.467-1.409-2.2l-.172-.265-.281-.141c-29.513-14.865-80.932-34.683-158.293-44.686l-.478-.063-.325.321c-.414.407-.826.813-1.236,1.247l-1.411,1.491,2.15.274C195.313,126.786,247.117,146.986,276.7,162.162Z" transform="translate(-66.328 -90.539)" fill="orchid"/>
          <path id="Path_47367" data-name="Path 47367" d="M259.564,158.9h0A274.218,274.218,0,0,1,291.3,177.257l3.134,2.113-1.688-3.349c-.337-.667-.68-1.315-1.024-1.967l-.154-.289-.029-.333-.467-.308a280.36,280.36,0,0,0-30.121-17.255c-30.477-15.091-81.156-33.5-149.522-35.5l-.489-.014-.289.367c-.341.436-.7.871-1.068,1.319l-1.371,1.667,2.259.058C178.7,125.547,229.209,143.855,259.564,158.9Z" transform="translate(-70.039 -86.347)" fill="orchid"/>
          <path id="Path_47368" data-name="Path 47368" d="M124.058,141.513l1.031.088.01-3.431-1.042-.088a73.611,73.611,0,0,0-24.777,2.259l-.425.112-.18.4q-.366.815-.729,1.671l-.89,2.1,2.212-.632A69.964,69.964,0,0,1,124.058,141.513Z" transform="translate(-76.768 -75.799)" fill="orchid"/>
          <path id="Path_47369" data-name="Path 47369" d="M263.909,165.915a277.787,277.787,0,0,1,39.821,26.879l2.99,2.427-1.422-3.516c-.356-.879-.739-1.744-1.121-2.6l-.115-.257-.221-.178a282.164,282.164,0,0,0-198.21-60.408l-.476.037-.245.391c-.292.463-.582.941-.872,1.419l.859.654h0l-.9-.588-1.09,1.794,2.163-.178A278.4,278.4,0,0,1,263.909,165.915ZM104.9,130.767Z" transform="translate(-73.237 -82.107)" fill="orchid"/>
          <path id="Path_47370" data-name="Path 47370" d="M159.039,137.885c36.761,4.056,92.948,18.5,151.847,64.265l2.741,2.129-1.18-3.2c-.213-.576-.441-1.159-.665-1.739l-.194-.5-.03-.35-.4-.309c-59.053-45.33-115.3-59.674-152.089-63.723a247.31,247.31,0,0,0-57.019.181l-.489.061L99.6,138.458l2.11-.274A243.19,243.19,0,0,1,159.039,137.885Z" transform="translate(-75.234 -78.775)" fill="orchid"/>
          <path id="Path_47371" data-name="Path 47371" d="M99.95,219.434l-3.282-1.34-.332.925a243.156,243.156,0,0,0-9.7,48.132l-.016.159.034.16c.306,1.441.641,2.881.988,4.322l1.507,6.251.532-6.232a239.434,239.434,0,0,1,9.929-51.421Z" transform="translate(-83.063 -27.392)" fill="orchid"/>
          <path id="Path_47372" data-name="Path 47372" d="M95.915,183.11l-.027-1.031-3.455-.205.029,1.029c.6,21.629-1.879,47.893-8.038,85.164l-.022.157.018.146c.194,1.59.415,3.155.649,4.718l.976,6.528,1.069-6.336C93.815,233.546,96.529,205.736,95.915,183.11Z" transform="translate(-84.401 -49.239)" fill="orchid"/>
          <path id="Path_47373" data-name="Path 47373" d="M98.692,217.842l4.428-13.927-3.309-1.272L95.4,216.563Z" transform="translate(-77.766 -36.713)" fill="orchid"/>
          <path id="Path_47374" data-name="Path 47374" d="M93.261,184.823a32,32,0,0,1,8.513-17.608l.752-.678-2.5-2.584-.717.649A34.718,34.718,0,0,0,89.83,184.11l-.122,1.007,3.429.721Z" transform="translate(-81.2 -60.049)" fill="orchid"/>
          <path id="Path_47375" data-name="Path 47375" d="M92.768,204.637l3.461.412.035-1.023c.327-9.339,9.677-22.384,10.087-22.951l.568-.8-2.833-2.161-.585.789c-.422.569-10.316,14.039-10.7,24.705Z" transform="translate(-79.354 -51.506)" fill="orchid"/>
          <path id="Path_47376" data-name="Path 47376" d="M113.219,185.6l.733-.707-2.634-2.528-.686.734c-1.234,1.323-12.226,13.64-18.065,38.853l-.229.989,3.381,1.029.224-.978C101.846,197.488,113.12,185.7,113.219,185.6Z" transform="translate(-79.614 -48.944)" fill="orchid"/>
          <path id="Path_47377" data-name="Path 47377" d="M110.561,193.283l-2.988-1.99-7.529,12.256,2.987,1.989Z" transform="translate(-74.965 -43.558)" fill="orchid"/>
          <path id="Path_47378" data-name="Path 47378" d="M116.95,167.549l.954-.3-1.284-3.3-.965.306c-.733.231-17.984,5.884-22.767,23.713l-.261.975,3.339,1.138.26-.967C100.587,172.9,116.284,167.759,116.95,167.549Z" transform="translate(-79.439 -60.051)" fill="orchid"/>
          <path id="Path_47379" data-name="Path 47379" d="M123.68,153.471l1.016-.149-.813-3.4-1,.144c-16.327,2.365-25.625,8.256-30.552,12.784L92,163.17l.026.289L89.96,170.6l3.052-3.3C96.756,163.25,105.718,156.07,123.68,153.471Z" transform="translate(-81.048 -68.514)" fill="orchid"/>
          <path id="Path_47380" data-name="Path 47380" d="M167.6,145.306c36.662,1.422,92.786,13.925,151.964,65.415l2.772,2.411-1.151-3.413c-.265-.787-.531-1.574-.808-2.35l-.029-.327-.356-.306c-59.493-51.069-115.836-63.464-152.628-64.868-37.723-1.465-64.573,7.856-71.9,10.743l-.374.148-.146.372c-.183.475-.358.965-.529,1.454l-.946,2.668,2.272-.944C100.8,154.2,128.048,143.775,167.6,145.306Z" transform="translate(-78.933 -73.464)" fill="orchid"/>
          <path id="Path_47381" data-name="Path 47381" d="M169.581,149.78c-41.882,1.586-70.112,18.571-71.3,19.3l-.863.523,2.034,2.948.84-.513c1.154-.705,28.766-17.3,69.782-18.821,36.37-1.382,92.2,9.092,151.587,66.761l2.733,2.653-1.052-3.57c-.258-.872-.526-1.733-.8-2.592l-.088-.279-.215-.207C262.489,158.779,206.244,148.416,169.581,149.78Z" transform="translate(-76.552 -68.666)" fill="orchid"/>
          <path id="Path_47382" data-name="Path 47382" d="M244.477,168.374c-23.992-9.735-48.543-13.207-72.98-10.325-41.521,4.917-68.677,26.953-68.934,27.174l-.728.627,2.294,2.711.768-.627c.265-.216,26.937-21.689,67.3-26.459,35.983-4.271,91.353,4.107,150.766,68.182l2.748,2.964-1.016-3.809c-.247-.928-.494-1.842-.754-2.756l-.075-.265-.192-.207C298.369,198.682,271.723,179.433,244.477,168.374Z" transform="translate(-73.885 -64.202)" fill="orchid"/>
          <path id="Path_47383" data-name="Path 47383" d="M208.385,164.578c-59.334-5.388-101.041,36.53-101.454,36.955l-.7.713,2.594,2.479.683-.7c.4-.415,41.154-41.279,98.863-36.02,39.823,3.631,78.67,27.708,115.456,71.561l2.788,3.323-1.012-4.106c-.228-.92-.441-1.826-.654-2.746l-.026-.289-.237-.277C287.729,192.1,248.6,168.251,208.385,164.578Z" transform="translate(-71.232 -59.961)" fill="orchid"/>
          <path id="Path_47384" data-name="Path 47384" d="M117.888,224.781c28.6-41.029,86.266-67.946,150.648-35.591,33.487,16.821,47.5,36.791,63.728,59.917,1.541,2.188,3.113,4.42,4.713,6.664l2.628,3.684-.782-4.327c-.186-1.037-.372-2.06-.56-3l-.026-.293-.176-.248c-1.02-1.443-2.025-2.873-3.024-4.3-16.542-23.541-30.828-43.873-65.161-61.131-66.221-33.284-125.507-5.65-154.885,36.5-26.85,38.51-24.931,82.8-21.4,105.775l.056.216q1.243,3.314,2.535,6.546l1.972-.418C90.254,294.2,97.446,254.113,117.888,224.781Z" transform="translate(-80.069 -55.57)" fill="orchid"/>
          <path id="Path_47385" data-name="Path 47385" d="M200.82,279.765c-6.074-15.654-8.962-17.3-11.163-16.75-5.606,1.339-.415,21.752-.361,21.956,2.886,11.051,48.536,36.391,68.029,46.773l.888.475,1.622-2.908-1.005-.536c-30.67-16.375-64.167-36.633-66.2-44.389-2.273-8.731-2.336-15.562-1.856-17.611.877.983,3.02,4.133,6.838,13.97,9.093,23.424,44.145,37.043,64.232,43.078l.786.236.359-.683c.226-.43.439-.861.656-1.3l.55-1.119-1.267-.385C243.336,314.621,209.221,301.406,200.82,279.765Z" transform="translate(-22.482 -0.349)" fill="orchid"/>
          <path id="Path_47386" data-name="Path 47386" d="M208.382,277.569c-6.161-14.207-11-20.439-15.676-20.134-4.781.221-7.968,7.181-10.331,22.566-3.179,20.652,55.137,53.348,73.086,62.877l.811.43.483-.7c.265-.385.515-.782.752-1.167l.577-.935-1.047-.56c-35.894-19.161-73.461-44.759-71.25-59.133,2.748-17.823,6.079-19.9,7.46-19.956,1,0,4.811,1.286,11.974,17.821,7.187,16.729,28.12,31.139,62.218,42.819l.864.3.348-.784c.09-.2.181-.4.276-.592s.2-.42.292-.632l.471-1.06-1.167-.4C235.832,307.172,215.035,293.077,208.382,277.569Z" transform="translate(-25.38 -3.669)" fill="orchid"/>
          <path id="Path_47387" data-name="Path 47387" d="M217.018,275.7c-7.775-16.28-14.938-24.232-21.992-24.307-7,0-13.021,7.989-18.393,24.424-9.752,29.778,56.929,67.484,77.6,78.332l.789.414,1.98-2.724-1.132-.6c-14.268-7.535-84.982-46.518-75.949-74.109,4.777-14.589,10.106-22.3,15.464-22.3,5.249.064,11.657,7.716,18.528,22.127,7.628,15.974,27.246,29.869,59.975,42.478l.853.329.382-.766a13.672,13.672,0,0,0,.563-1.311l.375-.988-1.05-.406C243.155,304.019,224.187,290.741,217.018,275.7Z" transform="translate(-29.353 -7.31)" fill="orchid"/>
          <path id="Path_47388" data-name="Path 47388" d="M225.8,274.047c-9.994-19-19.822-28.767-29.213-29.042-9.318-.21-17.9,8.808-25.555,26.949-7.649,18.1,4.6,40.254,35.434,64.084,19.19,14.833,40.237,26.17,46.229,29.292l.742.386.494-.593c.29-.349.58-.7.869-1.06l.773-.97-1.19-.62c-16.107-8.407-95.68-52.211-80.153-88.961,7.117-16.843,14.693-25.279,22.558-25.069,7.941.234,16.684,9.313,25.989,26.982,10.576,20.089,37.917,33.643,57.561,42.09l.964.415.51-1.337c.111-.282.22-.566.317-.848l.324-.935-.967-.417C262.375,306.175,235.815,293.048,225.8,274.047Z" transform="translate(-33.484 -11.162)" fill="orchid"/>
          <path id="Path_47389" data-name="Path 47389" d="M234.737,272.512c-13.082-22.576-25.241-33.733-37.173-34.1-11.54-.345-22.267,9.712-32.006,29.88-4.874,10.071-5.113,20.974-.712,32.408,14.219,36.952,74.07,69.533,85.924,75.69l.694.361.5-.521c.308-.322.6-.643.944-1.02l.893-.978-1.273-.659c-11.686-6.044-70.67-38.015-84.469-73.86-4.043-10.488-3.828-20.489.636-29.723,9.021-18.68,18.666-28.144,28.671-28.144q.2,0,.394,0c10.531.317,21.659,10.846,34.018,32.182,10.841,18.72,35.07,32.052,54.967,41.577l.988.473.366-.959c.16-.425.308-.85.454-1.291l.3-.888-.9-.433C268.562,303.208,245,290.257,234.737,272.512Z" transform="translate(-37.767 -15.145)" fill="orchid"/>
          <path id="Path_47390" data-name="Path 47390" d="M243.732,271.057c-11.5-18.1-27.071-38.937-45.583-39.376l-.551-.013c-13.346,0-25.944,11.118-37.447,33.045-6.7,12.779-7.445,26.432-2.2,40.58,15.261,41.226,77.966,75.463,90.379,81.908l.652.338.5-.459c.349-.321.7-.643,1.045-.976l1.02-.98-1.361-.7c-12.247-6.3-74.09-39.769-89.009-80.065-4.88-13.185-4.181-25.914,2.079-37.84,11.078-21.141,22.9-31.753,35.147-31.4,16.705.4,31.474,20.3,42.472,37.587,11.157,17.579,32.644,30.56,52.193,40.937l1.057.56.353-1.063c.148-.442.281-.888.4-1.332l.22-.821-.8-.425C275.255,300.417,254.362,287.789,243.732,271.057Z" transform="translate(-42.119 -19.205)" fill="orchid"/>
          <path id="Path_47391" data-name="Path 47391" d="M252.787,269.629l-.282-.388c-11.49-16.5-30.722-44.12-54.088-44.387H198.1c-15.375,0-29.943,12.232-43.3,36.354-8.638,15.519-9.948,31.943-3.893,48.817,15.681,43.706,76.172,78.163,94.338,87.681l.6.317.612-.478c.356-.279.7-.55,1.047-.845l1.135-.968-1.433-.744c-12.781-6.647-77.328-42.018-93.068-85.862-5.7-15.9-4.454-31.392,3.713-46.061,12.862-23.248,26.618-34.962,40.833-34.773,21.483.255,39.991,26.863,51.052,42.758l.268.388c11.641,16.724,32.442,30.231,49.264,40.129l1.127.664.931-3.291-.758-.447C284.2,298.841,263.976,285.7,252.787,269.629Z" transform="translate(-46.536 -23.315)" fill="orchid"/>
          <path id="Path_47392" data-name="Path 47392" d="M261.878,268.262c-.585-.765-1.191-1.576-1.823-2.418l-1.515-2.017c-12.768-17.106-34.137-45.74-59.9-45.8-17.387,0-33.927,13.353-49.158,39.685-10.616,18.379-12.5,37.638-5.587,57.243,16.417,46.643,78.752,82.835,97.464,92.816l.56.3,3.155-2.1-1.594-.842c-18.523-9.781-80.217-45.255-96.33-91.043-6.559-18.632-4.755-36.955,5.359-54.458,14.639-25.321,30.26-38.159,46.5-38.159,23.844.053,44.495,27.719,56.833,44.248,1.188,1.6,2.313,3.105,3.355,4.468,12.2,16.011,31.07,29.3,46.148,39.084l1.185.77.332-1.283c.115-.45.229-.919.33-1.385l.156-.721-.657-.426C292.037,296.693,273.7,283.763,261.878,268.262Z" transform="translate(-50.976 -27.43)" fill="orchid"/>
          <path id="Path_47393" data-name="Path 47393" d="M275.08,268.2c-30.637-45.825-58-55.611-75.558-55.751-20.777-.093-38.988,12.878-51.241,36.7-14.491,28.165-16.389,55.8-5.638,82.142,18.574,45.53,70.126,74.925,91.429,85.448l.46.229.436-.2c.518-.24,1.034-.51,1.536-.779l1.719-.922-1.882-.915c-16.481-8.034-71.712-37.826-90.517-83.912-10.35-25.351-8.482-52.039,5.55-79.322,11.621-22.584,28.694-35.023,48.071-35.023h.35c16.662.122,42.762,9.6,72.469,54.038,9.108,13.635,25.4,25.959,37.457,33.9l1.249.822.311-1.513c.088-.43.175-.858.252-1.275l.13-.7-.628-.415C299.423,293.055,283.762,281.172,275.08,268.2Z" transform="translate(-53.407 -30.8)" fill="orchid"/>
          <path id="Path_47394" data-name="Path 47394" d="M283.082,264.31c-12.609-18.672-24.827-31.882-38.451-41.574-18.371-13.061-37.211-18.284-54.478-15.107-18.788,3.481-35.345,16.846-46.622,37.64-24.982,45.987-12.08,84.472,3.142,108.654,23.586,37.787,66.817,61.107,84.308,69.378l.422.2.407-.159c.572-.226,1.116-.451,1.685-.705l1.994-.891-2.116-.984c-17.395-8.088-60.382-30.948-83.816-68.464-14.72-23.376-27.18-60.6-2.951-105.2,10.844-19.974,26.634-32.787,44.461-36.076,16.293-3.014,34.18,1.983,51.72,14.459,13.228,9.395,25.139,22.283,37.484,40.562,7.123,10.547,18.749,21.848,34.555,33.593l1.294.962.3-1.488c.1-.5.184-1,.253-1.515l.085-.628-.539-.4C301.014,285.219,289.867,274.367,283.082,264.31Z" transform="translate(-57.224 -34.25)" fill="orchid"/>
          <path id="Path_47395" data-name="Path 47395" d="M290.964,260.468c-14.034-20.588-26.674-33.72-42.263-43.906-20.146-13.169-40.759-18.162-59.611-14.432-20.336,4-38.246,17.957-50.43,39.3-20.782,36.432-20.425,78.328.983,114.943,23.7,40.543,68.871,64.645,87.192,73.126l.361.167.364-.1c.6-.167,1.191-.356,1.791-.55l2.613-.842-2.487-1.129c-18.276-8.289-63.329-31.916-86.883-72.2-12.2-20.865-28.53-63.1-.89-111.529,11.727-20.561,28.893-33.991,48.334-37.814,17.951-3.541,37.643,1.262,56.948,13.88,15.144,9.9,27.456,22.712,41.173,42.839,6.921,10.171,17.5,21.176,31.446,32.713L321,296.09l.25-1.685c.082-.54.135-1.066.188-1.606l.055-.568-.463-.386C307.706,280.763,297.592,270.206,290.964,260.468Z" transform="translate(-60.922 -37.746)" fill="orchid"/>
          <path id="Path_47396" data-name="Path 47396" d="M298.95,256.725C287.8,240.5,274.5,223.672,252.893,210.492c-55.579-33.9-98.833-6.531-118.987,27.209-22.084,36.955-22.523,82.271-1.175,121.218,22.539,41.157,65.2,65.44,88.622,76.251l.3.141.316-.051c.77-.127,1.537-.265,2.32-.42l3.054-.6-2.982-1.345c-23.474-10.587-66.205-34.462-88.646-75.4-20.742-37.846-20.3-81.9,1.188-117.84,19.39-32.472,60.98-58.834,114.377-26.27,20.955,12.781,33.947,29.232,44.867,45.106,6.794,9.9,16.231,20.392,28.049,31.185l1.526,1.393.168-1.948c.05-.553.083-1.119.115-1.685l-1.032-.17h0l1.034.151.03-.513-.4-.367C314.388,276.167,305.406,266.139,298.95,256.725Z" transform="translate(-64.722 -41.341)" fill="orchid"/>
          <path id="Path_47397" data-name="Path 47397" d="M307.041,252.875c-13.786-19.868-27.539-35.727-49.845-48.543-25.723-14.8-51.966-18.85-75.895-11.719-20.867,6.23-39.355,20.88-52.059,41.255-23.69,37.983-24.936,85.645-3.33,127.5,21.787,42.2,64.191,67.132,87.531,78.237l.226.107h.242c1.023,0,2.031-.014,3.062-.071l4.006-.218-3.788-1.743c-23.583-10.857-66.407-35.382-88.234-77.665-21.029-40.74-19.807-87.152,3.27-124.152,21.069-33.814,66.043-61.588,123.455-28.58,21.7,12.468,35.108,27.951,48.564,47.364a219.835,219.835,0,0,0,24.285,28.883l1.683,1.709.059-2.283c.016-.614.018-1.226.019-1.853v-.443l-.324-.333A215.932,215.932,0,0,1,307.041,252.875Z" transform="translate(-68.629 -44.827)" fill="orchid"/>
          <path id="Path_47398" data-name="Path 47398" d="M315.027,249.112c-12.335-17.648-26.635-36.112-53.614-50.848-27.564-15.062-55.741-18.869-81.487-11.019-22.214,6.764-41.9,21.991-55.436,42.876-29.778,45.893-22.356,99.2-5.483,133.789,19.152,39.251,54.925,63.943,81.562,77.748l.255.123h.165c1.369.255,2.778.474,4.192.652l5.828.733-5.392-2.673c-27.408-13.589-64.147-38.13-83.527-77.875-16.465-33.721-23.709-85.7,5.342-130.449,24.636-37.989,75.172-62.285,132.525-30.933C286.24,215.6,300.2,233.648,312.241,250.9a277.213,277.213,0,0,0,20,25.367l1.861,2.1-.085-2.943c-.018-.614-.034-1.214-.067-1.874l-.032-.372-.247-.281A273.207,273.207,0,0,1,315.027,249.112Z" transform="translate(-72.43 -48.4)" fill="orchid"/>
          <path id="Path_47399" data-name="Path 47399" d="M336.821,264.334l-.034-.314-.2-.257c-5.185-6.634-9.76-13.04-13.552-18.43-13.6-19.315-28.218-37.914-57.4-53.154-62.785-32.83-118.515-6.49-145.9,34.18C88.012,273.492,95.8,331.271,112.109,366.427c11.5,24.913,30.642,46.858,56.767,65.137l.3.2a111.617,111.617,0,0,0,11.812,6.145l.835-1.8c-31.333-19.209-53.739-43.06-66.595-70.888-15.939-34.329-23.56-90.748,7.426-136.771,26.584-39.5,80.675-65.11,141.595-33.261,28.384,14.837,42.694,33.037,56.017,51.943,3.876,5.513,9.082,12.8,14.972,20.25l2.11,2.668-.285-3.261C336.991,265.97,336.906,265.152,336.821,264.334Z" transform="translate(-76.252 -51.958)" fill="orchid"/>
          <path id="Path_47400" data-name="Path 47400" d="M162.04,99.315a29.267,29.267,0,0,0-6.62.133c12.436,4.463,33.516,10.631,40.445,11.965C189.286,106.613,170.16,100,162.04,99.315Z" transform="translate(-41.564 -99.113)" fill="orchid"/>
        </g>
      </g>
      <g id="Group_25817" data-name="Group 25817" transform="translate(0 0)">
        <path id="Path_47401" data-name="Path 47401" d="M87.773,90.19l1.059,12.1H60.64l2.466,28.192h-12.1L47.48,90.19Z" transform="translate(-47.48 -90.19)" fill="#00a36c"/>
        <path id="Path_47402" data-name="Path 47402" d="M111.909,372.005l-1.059-12.1H82.659l-2.466-28.192h-12.1l3.525,40.293Z" transform="translate(-35.048 55.491)" fill="#00a36c"/>
        <path id="Path_47403" data-name="Path 47403" d="M248.7,372.01l-1.059-12.1h28.192l-2.467-28.192h12.1L289,372.01Z" transform="translate(73.256 55.495)" fill="#00a36c"/>
        <path id="Path_47404" data-name="Path 47404" d="M224.493,90.8l1.059,12.1h28.192l2.466,28.191h12.1L264.785,90.8Z" transform="translate(59.291 -89.821)" fill="#00a36c"/>
      </g>
    </g>
  </g>
</svg>
