<svg id="OBJECTS" xmlns="http://www.w3.org/2000/svg" width="649.075" height="440.117" viewBox="0 0 649.075 440.117">
  <path id="Path_47632" data-name="Path 47632" d="M56.836,372.411l35.912,49.149c12.328,16.874,31.272,26.742,51.338,26.742H589.708a62.986,62.986,0,0,0,44.931-19.189l7.672-7.805c42.655-43.4,50.986-112.7,19.976-166.158h0a73.039,73.039,0,0,1-9.394-43.429h0c5.367-56.7-29.99-108.683-82.218-120.881L471.185,67.6c-76.639-17.9-156.786.359-219.918,50.007-11.528,9.066-19.731,15.131-21,15.094-2.556-.074-40.913,6.4-77.7,12.738-39.662,6.828-69.035,42.959-69.728,85.772h0a71.581,71.581,0,0,1-19.863,48.695h0C39.047,304.537,36.4,344.437,56.836,372.411Z" transform="translate(-36.888 -60.883)" fill="rgba(218,112,214,0.54)" opacity="0.35"/>
  <g id="Group_26814" data-name="Group 26814" transform="translate(33.853 39.709)">
    <path id="Path_47633" data-name="Path 47633" d="M670.308,167.581a18.882,18.882,0,0,0-12.351-10.992,23.939,23.939,0,0,0-47.227-4.484,18.82,18.82,0,0,0-19.216,10.681,23.927,23.927,0,0,0-34.381,4.795Z" transform="translate(-65.126 -99.797)" fill="#fff"/>
    <path id="Path_47634" data-name="Path 47634" d="M146.442,228.25a12.684,12.684,0,0,0-8.295-7.381,16.076,16.076,0,0,0-31.715-3.012,12.82,12.82,0,0,0-1.456-.086,12.655,12.655,0,0,0-11.448,7.258,16.066,16.066,0,0,0-23.087,3.22Z" transform="translate(-70.442 -99.013)" fill="#fff"/>
    <path id="Path_47635" data-name="Path 47635" d="M240.686,116.7a9.193,9.193,0,0,1,6.014-5.351,11.656,11.656,0,0,1,22.994-2.184,9.155,9.155,0,0,1,9.356,5.2,11.651,11.651,0,0,1,16.74,2.334Z" transform="translate(-68.582 -100.163)" fill="#fff"/>
  </g>
  <g id="Group_26815" data-name="Group 26815" transform="translate(77.818 28.184)">
    <path id="Path_47636" data-name="Path 47636" d="M238.59,156.068v-9.952a3.7,3.7,0,0,0-3.7-3.7h-9.474a47.443,47.443,0,0,0-8.525-19.691l6.964-6.963a3.7,3.7,0,0,0,0-5.231l-7.038-7.037a3.7,3.7,0,0,0-5.23,0l-7.334,7.335a47.554,47.554,0,0,0-19.319-7.15V92.462a3.7,3.7,0,0,0-3.7-3.7h-9.951a3.7,3.7,0,0,0-3.7,3.7v11.976a47.688,47.688,0,0,0-17.62,8.079l-9.033-9.023a3.7,3.7,0,0,0-5.23,0l-7.038,7.038a3.7,3.7,0,0,0,0,5.231l9.4,9.4a47.813,47.813,0,0,0-6.828,17.249H117.63a3.7,3.7,0,0,0-3.7,3.7v9.952a3.7,3.7,0,0,0,3.7,3.7h13.613A47.762,47.762,0,0,0,138.071,177l-9.4,9.4a3.7,3.7,0,0,0,0,5.23l7.038,7.039a3.7,3.7,0,0,0,5.23,0l9.033-9.023a47.518,47.518,0,0,0,17.62,8.091v11.976a3.7,3.7,0,0,0,3.7,3.7h9.951a3.7,3.7,0,0,0,3.7-3.7V198.5a47.6,47.6,0,0,0,19.319-7.162l7.334,7.335a3.7,3.7,0,0,0,5.23,0l7.038-7.038a3.7,3.7,0,0,0,0-5.23l-6.964-6.964a47.616,47.616,0,0,0,8.525-19.678h9.474A3.7,3.7,0,0,0,238.59,156.068Zm-38.683,8.809a25.576,25.576,0,0,1-9.787,8.936,24.81,24.81,0,0,1-6.751,2.384,25.577,25.577,0,0,1-13.239-.851,24.833,24.833,0,0,1-5.6-2.686,25.523,25.523,0,0,1-8.946-9.777,25.01,25.01,0,0,1-2-5.173,25.6,25.6,0,0,1,0-13.238,24.75,24.75,0,0,1,2.014-5.182,25.63,25.63,0,0,1,8.936-9.778,24.873,24.873,0,0,1,5.6-2.685,25.547,25.547,0,0,1,13.239-.851,24.841,24.841,0,0,1,6.751,2.383,25.642,25.642,0,0,1,9.787,8.936,25.617,25.617,0,0,1,0,27.583Z" transform="translate(-113.932 -88.763)" fill="#d36d50"/>
    <path id="Path_47637" data-name="Path 47637" d="M234.745,142.419h-9.473a47.453,47.453,0,0,0-8.526-19.691l6.963-6.963a3.7,3.7,0,0,0,0-5.231l-7.038-7.037a3.7,3.7,0,0,0-5.23,0l-7.334,7.335a47.554,47.554,0,0,0-19.319-7.15V92.462a3.7,3.7,0,0,0-3.7-3.7h-9.951a3.7,3.7,0,0,0-3.7,3.7v11.976a47.688,47.688,0,0,0-17.62,8.079l-9.033-9.023a3.7,3.7,0,0,0-5.23,0l-7.038,7.038a3.7,3.7,0,0,0,0,5.231l9.4,9.4a47.8,47.8,0,0,0-6.828,17.249H129.83a72.549,72.549,0,0,0,27.014,22.824,25.586,25.586,0,0,1-1.4-2.36,25.01,25.01,0,0,1-2-5.173,25.6,25.6,0,0,1,0-13.238,24.75,24.75,0,0,1,2.014-5.182,25.63,25.63,0,0,1,8.936-9.778,24.873,24.873,0,0,1,5.6-2.685,25.547,25.547,0,0,1,13.239-.851,24.841,24.841,0,0,1,6.751,2.383,25.642,25.642,0,0,1,9.787,8.936,25.617,25.617,0,0,1,0,27.583,25.585,25.585,0,0,1-7.483,7.571,71.82,71.82,0,0,0,32.3-9.552c.263-1.032.5-2.072.7-3.13h4.263a72.586,72.586,0,0,0,8.908-7.271v-6.379A3.7,3.7,0,0,0,234.745,142.419Z" transform="translate(-113.784 -88.763)" fill="#ff4040"/>
  </g>
  <g id="Group_26836" data-name="Group 26836" transform="translate(126.575 33.697)">
    <g id="Group_26825" data-name="Group 26825" transform="translate(0 56.817)">
      <rect id="Rectangle_18417" data-name="Rectangle 18417" width="81.323" height="53.086" transform="translate(153.993 263.021)" fill="#3f704d"/>
      <rect id="Rectangle_18418" data-name="Rectangle 18418" width="81.323" height="23.561" transform="translate(153.993 263.021)" fill="#26452f"/>
      <path id="Rectangle_18419" data-name="Rectangle 18419" d="M19.27,0h350.77a19.27,19.27,0,0,1,19.27,19.27V244.836a0,0,0,0,1,0,0H0a0,0,0,0,1,0,0V19.27A19.27,19.27,0,0,1,19.27,0Z" fill="#00a36c"/>
      <rect id="Rectangle_18420" data-name="Rectangle 18420" width="362.165" height="187.596" transform="translate(13.572 22.975)" fill="#c1f0e0"/>
      <path id="Rectangle_18421" data-name="Rectangle 18421" d="M0,0H389.309a0,0,0,0,1,0,0V19.874a19.27,19.27,0,0,1-19.27,19.27H19.27A19.27,19.27,0,0,1,0,19.874V0A0,0,0,0,1,0,0Z" transform="translate(0 229.753)" fill="#0d8e63"/>
      <circle id="Ellipse_254" data-name="Ellipse 254" cx="7.367" cy="7.367" r="7.367" transform="translate(187.288 243.063)" fill="#26452f"/>
      <path id="Path_47638" data-name="Path 47638" d="M503.024,449.149H209.679a4.893,4.893,0,0,1-4.893-4.893h0a14.31,14.31,0,0,1,14.31-14.31H493.607a14.31,14.31,0,0,1,14.31,14.31h0A4.893,4.893,0,0,1,503.024,449.149Z" transform="translate(-161.697 -123.441)" fill="#6da27c"/>
      <g id="Group_26824" data-name="Group 26824" transform="translate(29.445 39.494)">
        <g id="Group_26817" data-name="Group 26817" transform="translate(250.133 11.673)">
          <rect id="Rectangle_18422" data-name="Rectangle 18422" width="80.286" height="20.081" rx="2.192" fill="#f4fffb"/>
          <g id="Group_26816" data-name="Group 26816" transform="translate(6.339 5.312)">
            <path id="Path_47639" data-name="Path 47639" d="M449.962,214.338l-3.073,1.406.388-3.357L444.99,209.9l3.313-.669,1.659-2.944,1.66,2.944,3.313.669-2.287,2.488.388,3.357Z" transform="translate(-444.99 -206.287)" fill="#ff4040"/>
            <path id="Path_47640" data-name="Path 47640" d="M464.222,214.338l-3.073,1.406.388-3.357L459.25,209.9l3.313-.669,1.659-2.944,1.66,2.944,3.313.669-2.287,2.488.388,3.357Z" transform="translate(-444.834 -206.287)" fill="#ff4040"/>
            <path id="Path_47641" data-name="Path 47641" d="M478.482,214.338l-3.073,1.406.388-3.357L473.51,209.9l3.313-.669,1.66-2.944,1.659,2.944,3.313.669-2.287,2.488.388,3.357Z" transform="translate(-444.678 -206.287)" fill="#ff4040"/>
            <path id="Path_47642" data-name="Path 47642" d="M492.742,214.338l-3.073,1.406.388-3.357L487.77,209.9l3.313-.669,1.66-2.944,1.659,2.944,3.313.669-2.287,2.488.388,3.357Z" transform="translate(-444.522 -206.287)" fill="#ff4040"/>
            <path id="Path_47643" data-name="Path 47643" d="M507,214.338l-3.073,1.406.388-3.357L502.03,209.9l3.313-.669,1.66-2.944,1.659,2.944,3.313.669-2.287,2.488.388,3.357Z" transform="translate(-444.367 -206.287)" fill="#e2e2e2"/>
          </g>
        </g>
        <g id="Group_26821" data-name="Group 26821">
          <rect id="Rectangle_18423" data-name="Rectangle 18423" width="89.736" height="27.908" rx="4.384" fill="#f4fffb"/>
          <g id="Group_26820" data-name="Group 26820" transform="translate(4.702 3.723)">
            <g id="Group_26818" data-name="Group 26818" transform="translate(0 0)">
              <circle id="Ellipse_255" data-name="Ellipse 255" cx="7.824" cy="7.824" r="7.824" transform="matrix(0.384, -0.923, 0.923, 0.384, 0, 14.445)" fill="#d0856d"/>
              <path id="Path_47644" data-name="Path 47644" d="M200.865,209.125a7.791,7.791,0,0,0,10.506,0,5.273,5.273,0,0,0-3.289-4.477,3.254,3.254,0,1,0-3.928,0A5.273,5.273,0,0,0,200.865,209.125Z" transform="translate(-195.887 -193.107)" fill="#f7f7f7"/>
            </g>
            <g id="Group_26819" data-name="Group 26819" transform="translate(23.733 6.147)">
              <rect id="Rectangle_18424" data-name="Rectangle 18424" width="41.704" height="1.493" fill="#d0e7cf"/>
              <rect id="Rectangle_18425" data-name="Rectangle 18425" width="54.192" height="1.493" transform="translate(0 3.337)" fill="#d0e7cf"/>
              <rect id="Rectangle_18426" data-name="Rectangle 18426" width="54.192" height="1.493" transform="translate(0 6.674)" fill="#d0e7cf"/>
            </g>
          </g>
        </g>
        <g id="Group_26822" data-name="Group 26822" transform="translate(0 38.939)">
          <rect id="Rectangle_18427" data-name="Rectangle 18427" width="51.177" height="12.801" rx="2.192" fill="#e4f7f0"/>
          <rect id="Rectangle_18428" data-name="Rectangle 18428" width="51.177" height="12.801" rx="2.192" transform="translate(0 18.086)" fill="#e4f7f0"/>
          <rect id="Rectangle_18429" data-name="Rectangle 18429" width="51.177" height="12.801" rx="2.192" transform="translate(0 36.173)" fill="#f4fffb"/>
          <rect id="Rectangle_18430" data-name="Rectangle 18430" width="51.177" height="12.801" rx="2.192" transform="translate(58.959 18.086)" fill="#ff4040"/>
          <rect id="Rectangle_18431" data-name="Rectangle 18431" width="51.177" height="12.801" rx="2.192" transform="translate(58.959 36.173)" fill="#e4f7f0"/>
        </g>
        <g id="Group_26823" data-name="Group 26823" transform="translate(279.241 63.425)">
          <path id="Path_49695" data-name="Path 49695" d="M2.192,0H48.985a2.192,2.192,0,0,1,2.192,2.192v8.417A2.192,2.192,0,0,1,48.985,12.8H2.192A2.192,2.192,0,0,1,0,10.609V2.192A2.192,2.192,0,0,1,2.192,0Z" fill="#ff4040"/>
          <rect id="Rectangle_18433" data-name="Rectangle 18433" width="51.177" height="12.801" rx="2.192" transform="translate(0 18.086)" fill="#dff5ed"/>
          <rect id="Rectangle_18434" data-name="Rectangle 18434" width="51.177" height="12.801" rx="2.192" transform="translate(0 36.173)" fill="#f4fffb"/>
        </g>
      </g>
    </g>
    <g id="Group_26835" data-name="Group 26835" transform="translate(79.873)">
      <g id="Group_26826" data-name="Group 26826" transform="translate(39.778 82.075)">
        <path id="Path_47645" data-name="Path 47645" d="M294.137,185.689c-2.309,58.359-29.448,64.267,0,106.366s130.877,27.183,132.6-4.689-19.695-51.074-5.661-90.956S294.137,185.689,294.137,185.689Z" transform="translate(-280.521 -175.404)" fill="#004767"/>
        <path id="Path_47646" data-name="Path 47646" d="M301.563,201.172c-3.421,26.525-12.521,52.683-7.847,67.061,0,0,.512-16.176,3.54-20.074,0,0-3.024,22.7,6.238,41.121s109.239,14.908,109.239,14.908,2.046-20.17,0-34.787-5.943-20.3-7.064-28.125c0,0,6.164,12.73,8.563,17.6s2.722,12.014,2.722,12.014.651-12.988-4.416-22.927-2.028-37.346-.527-48-70.52-23.3-78.359-19.024S301.563,201.172,301.563,201.172Z" transform="translate(-280.391 -175.353)" fill="#1f2a2c"/>
      </g>
      <g id="Group_26827" data-name="Group 26827" transform="translate(0 135.763)">
        <path id="Path_47647" data-name="Path 47647" d="M325.346,272.232c-34.75,11.771-59.677,16.2-66.878,38.913s-17.3,48.536-17.3,48.536H476.161s-11.633-53.521-24.372-62.384-62.594-23.713-77.827-26.259S325.346,272.232,325.346,272.232Z" transform="translate(-241.172 -228.057)" fill="#fff"/>
        <path id="Path_47648" data-name="Path 47648" d="M419.212,323.1s.887,21.306-2.227,36.005h7.966Z" transform="translate(-239.251 -227.479)" fill="#dcedff"/>
        <path id="Path_47649" data-name="Path 47649" d="M296.926,331.4s-.679,16.339,1.708,27.609h-6.109Z" transform="translate(-240.611 -227.388)" fill="#dcedff"/>
        <path id="Path_47650" data-name="Path 47650" d="M269.547,304.475c3.045-8.028,12.873-17.452,12.883-17.462-11.926,5.484-20.274,12.317-23.962,23.949-7.2,22.711-17.3,48.536-17.3,48.536H260.13C259.3,335.31,266.5,312.506,269.547,304.475Z" transform="translate(-241.172 -227.873)" fill="#dcedff"/>
        <path id="Path_47651" data-name="Path 47651" d="M367.009,316.5s-16.9-1.108-27.143-8.863S331,292.123,331,292.123s-7.478.554-10.248,0,1.207-29.412,17.361-29.939,49.987,6.173,54.142,6.4,17.859,12.506,14.4,28.068c-.554,2.493-7.245-4.527-10.292-.926S390.827,314.557,367.009,316.5Z" transform="translate(-240.312 -228.145)" fill="orchid"/>
        <path id="Path_47652" data-name="Path 47652" d="M361.277,311.83a85.187,85.187,0,0,1-29.431-40.342c-1.446-4.229,1-6.592,5.484-7.312Z" transform="translate(-240.186 -228.122)" fill="#a852a5"/>
        <path id="Path_47653" data-name="Path 47653" d="M367.348,315.864c11.882-7.605,22.823-26.3,26.147-32.532s3.456-12.1-6.72-13.18S367.348,315.864,367.348,315.864Z" transform="translate(-239.794 -228.057)" fill="#a852a5"/>
        <path id="Path_47654" data-name="Path 47654" d="M388.647,232.692c-3.06,24.708-4.814,37.919,3.449,48.165,0,0-14.725,29.912-25.249,36.006,0,0-25.2-18-32.128-46.807a35.138,35.138,0,0,0,4.708-15.788c.554-9.417-.83-25.757-.83-25.757Z" transform="translate(-240.15 -228.512)" fill="#ffc5c7"/>
        <path id="Path_47655" data-name="Path 47655" d="M382.089,297.849c-15.369,18.61-31.208,2.9-37.092-5.077a96.418,96.418,0,0,0,21.738,23.39C371.578,313.356,377.31,305.507,382.089,297.849Z" transform="translate(-240.038 -227.81)" fill="#fe8a8b"/>
        <path id="Path_47656" data-name="Path 47656" d="M339.424,254.265a35.78,35.78,0,0,1-4.465,15.386c11.4-2.023,35.862-6.713,51.2-12.179.242-6.773,1.26-14.847,2.49-24.785l-30.532-2.55-19.489-1.267C338.821,231.31,339.931,245.67,339.424,254.265Z" transform="translate(-240.147 -228.508)" fill="#fe8a8b"/>
      </g>
      <g id="Group_26834" data-name="Group 26834" transform="translate(46.02)">
        <g id="Group_26828" data-name="Group 26828" transform="translate(117.468 24.945)">
          <path id="Path_47657" data-name="Path 47657" d="M427.667,170.934c.98-15.582,1.236-29.761-10.924-47.933s-9.591,29.783-9.391,30.332S418.131,174.1,418.131,174.1Z" transform="translate(-402.848 -118.892)" fill="#ffa6a4"/>
          <path id="Path_47658" data-name="Path 47658" d="M420.661,194.935c-1.545,8.962-.5,16.361,3.8,17.1s9.031-5.924,10.575-14.885-.687-16.827-4.984-17.567S422.2,185.974,420.661,194.935Z" transform="translate(-402.706 -118.229)" fill="#ff4040"/>
          <path id="Path_47659" data-name="Path 47659" d="M429.031,200.463l-2.705,1.1-2.652,7.345s-.449.911-1,2.081a3.761,3.761,0,0,0,1.758.824c3.807.656,7.954-4.508,9.924-11.927C430.937,201.663,429.031,200.463,429.031,200.463Z" transform="translate(-402.677 -118.007)" fill="#b25030"/>
          <path id="Path_47660" data-name="Path 47660" d="M416.872,167.492c3.333-.618,12.787,1.888,13.86,6.772,2.44,11.1-1.613,36.862-9.052,43.221-2.711,2.317-10.26,1.846-12.939,1.023-6.8-2.088-6.821-12.957-4.336-27.379S412.246,168.349,416.872,167.492Z" transform="translate(-402.893 -118.362)" fill="#ff4040"/>
          <path id="Path_47661" data-name="Path 47661" d="M429.245,200.457c-3.459,2.495-5.256,0-5.256,0-2.345,4.987-6.656,4.983-12.1,5.721l-3.052-1.614s-2.981,2.193-5.777,4.176c.5,4.964,2.2,8.34,5.677,9.408,2.679.823,10.228,1.294,12.939-1.023C424.937,214.338,427.547,207.828,429.245,200.457Z" transform="translate(-402.891 -118.001)" fill="#b25030"/>
          <path id="Path_47662" data-name="Path 47662" d="M430.644,174.264c-1.073-4.884-10.527-7.39-13.86-6.772a5.09,5.09,0,0,0-.835.238c6.109-.453,9.308,3.823,10.009,8.721s0,27.064-7.192,36.842c-.917,1.247-2.5,4.89-7.85,5.664,3.395.447,8.536.357,10.675-1.472C429.031,211.127,433.085,185.368,430.644,174.264Z" transform="translate(-402.805 -118.362)" fill="#ffa6a4"/>
          <path id="Path_47663" data-name="Path 47663" d="M429.159,200.457c-3.459,2.495-5.256,0-5.256,0l0,0c-1.141,4.788-2.792,9.286-5.134,12.471-.917,1.247-2.5,4.89-7.85,5.664,3.395.447,8.536.357,10.675-1.472C424.852,214.338,427.461,207.828,429.159,200.457Z" transform="translate(-402.805 -118.001)" fill="#ff4040"/>
          <path id="Path_47664" data-name="Path 47664" d="M417.311,193.036c-1.348,7.824-4.139,13.873-6.234,13.512s-2.7-7-1.352-14.819,4.139-13.873,6.233-13.512S418.659,185.213,417.311,193.036Z" transform="translate(-402.826 -118.244)" fill="#b25030"/>
        </g>
        <path id="Path_47665" data-name="Path 47665" d="M313.728,218.451q.141.341.289.682c3.41,7.854,9.552,16.032,15.564,22.157,8.886,9.054,20.944,16.924,33.728,18.638,13.74,1.842,26.346-5.8,35.537-15.607a35.344,35.344,0,0,0,8.887-16.131c1.449-6.444.662-13.349,1.716-19.933.566-3.539,1.987-6.873,3.184-10.253,3.67-10.359,5.507-21.958,4.246-33.1-.525-4.632-1.281-11.273-3.788-15.29-2.883-4.618-9.55-8.251-14.05-11.067-14.422-9.026-33.542-12.33-49.932-7.228-16.754,5.216-30.415,18.646-37.473,34.528-3.359,7.56-5.312,15-3.681,23.148C309.989,199.145,309.682,208.668,313.728,218.451Z" transform="translate(-286.469 -93.837)" fill="#ffc5c7"/>
        <path id="Path_47666" data-name="Path 47666" d="M310.336,180.212s26.034,7.153,49.022,0,30.79-21.557,32.705-29.035c0,0,18.777,14.722,22.532,36.442,0,0,1.29-38.565-10.693-43.367s-37.067-11.078-39.836-8.586-49.3,29.081-49.3,29.081Z" transform="translate(-286.436 -93.77)" fill="#fe8a8b"/>
        <g id="Group_26830" data-name="Group 26830" transform="translate(50.397 82.801)">
          <path id="Path_47667" data-name="Path 47667" d="M336.547,180.306a51.652,51.652,0,0,1,5.87-2.416,32.29,32.29,0,0,1,6.291-1.44,17.569,17.569,0,0,1,6.557-.017c3.123.851,4.369,1.477,5.888,2.918l-.1.285a29.513,29.513,0,0,1-3.211-.039l-3.029-.165c-1.978-.076-3.923-.557-5.949-.56a40.112,40.112,0,0,0-6.086.492c-2.047.284-4.079.76-6.126,1.228Z" transform="translate(-336.547 -176.122)" fill="#0c0835"/>
          <path id="Path_47668" data-name="Path 47668" d="M403.843,180.953a23.423,23.423,0,0,0-6-1.681,32.027,32.027,0,0,0-6.135-.307c-2.051.1-4.022.648-6.042.769a59.318,59.318,0,0,1-6.335.269l-.1-.285a14.486,14.486,0,0,1,5.927-2.973,19.03,19.03,0,0,1,6.6-.205A27.442,27.442,0,0,1,398.2,177.8a21.546,21.546,0,0,1,5.8,2.892Z" transform="translate(-336.081 -176.12)" fill="#0c0835"/>
          <ellipse id="Ellipse_256" data-name="Ellipse 256" cx="1.978" cy="4.044" rx="1.978" ry="4.044" transform="translate(10.683 11.794)" fill="#0c0835"/>
          <ellipse id="Ellipse_257" data-name="Ellipse 257" cx="1.9" cy="4.044" rx="1.9" ry="4.044" transform="translate(52.382 11.988)" fill="#0c0835"/>
          <path id="Path_47669" data-name="Path 47669" d="M375.735,211.028a7.564,7.564,0,0,1-2.936,3.749,5.15,5.15,0,0,1-4.636.49c-2.4-1.016-3.067-3.822.2-3.187a11.261,11.261,0,0,0,3.793.217C372.829,212.2,375.447,211.777,375.735,211.028Z" transform="translate(-336.224 -175.741)" fill="#fe8a8b"/>
          <g id="Group_26829" data-name="Group 26829" transform="translate(15.684 46.279)">
            <path id="Path_47670" data-name="Path 47670" d="M352.062,221.9c8.235,1.067,28.08,1.549,34.56,1.227-2.653,8.8-9.176,17.415-18.117,17.1C359.334,239.9,354,231.071,352.062,221.9Z" transform="translate(-352.062 -221.901)" fill="#c31f2a"/>
            <path id="Path_47671" data-name="Path 47671" d="M379.274,235.543c-6.9-5.813-11.884-.84-11.884-.84-1.572-1.068-5.925-2.873-9.746-.289a14.949,14.949,0,0,0,7.972,5.283c1,.135,2.039.274,3.081.4A14.772,14.772,0,0,0,379.274,235.543Z" transform="translate(-352.001 -221.783)" fill="#fb8384"/>
            <path id="Path_47672" data-name="Path 47672" d="M354.181,222.137a21.27,21.27,0,0,0,.871,4.343,47.834,47.834,0,0,0,28.064,1.448,47.405,47.405,0,0,0,.764-4.723C376.444,223.318,362.173,222.923,354.181,222.137Z" transform="translate(-352.039 -221.898)" fill="#fff"/>
          </g>
        </g>
        <g id="Group_26831" data-name="Group 26831" transform="translate(99.385 122.976)">
          <path id="Path_47673" data-name="Path 47673" d="M404.916,239.082a9.131,9.131,0,0,1-1.963-.049c-6.291-.852-9.661-1.322-9.661-1.322l.385-2.758s3.367.469,9.65,1.32c5.793.791,13.222-8.415,15.182-19.237a1.4,1.4,0,0,1,1.562-1.161h0a1.385,1.385,0,0,1,1.189,1.6C419.223,228.9,411.729,238.538,404.916,239.082Z" transform="translate(-384.915 -215.863)" fill="#ffa6a4"/>
          <path id="Path_47674" data-name="Path 47674" d="M420.931,216.339a1.375,1.375,0,0,1-.017.3c-2.036,11.421-9.53,21.063-16.345,21.606a9.136,9.136,0,0,1-1.963-.049c-4.965-.672-8.1-1.106-9.208-1.26l-.107.768s3.37.47,9.661,1.322a9.2,9.2,0,0,0,1.963.049c6.814-.544,14.308-10.185,16.344-21.606A1.343,1.343,0,0,0,420.931,216.339Z" transform="translate(-384.915 -215.858)" fill="#f97068"/>
          <path id="Path_47675" data-name="Path 47675" d="M393.534,239.114l-5.519-.755a3.481,3.481,0,0,1-2.977-3.921h0a3.483,3.483,0,0,1,3.921-2.977l5.519.756a3.481,3.481,0,0,1,2.977,3.921h0A3.481,3.481,0,0,1,393.534,239.114Z" transform="translate(-385.006 -215.693)" fill="#252384"/>
          <path id="Path_47676" data-name="Path 47676" d="M396.649,233.4a3.41,3.41,0,0,1-.024.686h0a3.481,3.481,0,0,1-3.921,2.977l-4.829-.661a3.466,3.466,0,0,1-2.775-2.236c-.018.085-.049.165-.061.252h0a3.481,3.481,0,0,0,2.977,3.921l5.519.755a3.481,3.481,0,0,0,3.921-2.976h0A3.459,3.459,0,0,0,396.649,233.4Z" transform="translate(-385.006 -215.672)" fill="#261b60"/>
        </g>
        <g id="Group_26832" data-name="Group 26832" transform="translate(5.345 0.26)">
          <path id="Path_47677" data-name="Path 47677" d="M386.1,144.773s27.7,11.633,27.973,49.576c0,0,22.157-24.372,9.141-60.931s-50.685-35.174-50.685-35.174Z" transform="translate(-291.102 -94.432)" fill="#252384"/>
          <path id="Path_47678" data-name="Path 47678" d="M385.964,144.337s27.014,11.371,27.933,48.232c0-.213,0-.415,0-.634-.452-37.191-13.345-47.07-26.086-53.843l-3.034,2.172Z" transform="translate(-290.968 -93.997)" fill="#261b60"/>
          <path id="Path_47679" data-name="Path 47679" d="M308.967,178.6s76.35,4.432,82.443-34.343-13.479-48.186-23.08-49.115-28.31-3.152-44.314,12.371-33.87,24.926-31.882,75.149Z" transform="translate(-291.981 -94.473)" fill="#252384"/>
          <path id="Path_47680" data-name="Path 47680" d="M307.216,167.6c3.329-1.853,6.652-3.754,9.866-5.849q4.848-3.095,9.514-6.509a200.567,200.567,0,0,0,17.933-14.646,201.5,201.5,0,0,1-16.544,16.372q-4.361,3.882-8.979,7.494c-3.057,2.436-6.256,4.7-9.495,6.93Z" transform="translate(-291.815 -93.97)" fill="#0c0835"/>
          <path id="Path_47681" data-name="Path 47681" d="M350.615,110.638c-18.091,9.786-37.985,33.322-38.371,52.818,0,0-7.65-7.1-3.627-17.282s15.867-21.458,22.429-26.3S350.615,110.638,350.615,110.638Z" transform="translate(-291.812 -94.297)" fill="#0c0835"/>
          <path id="Path_47682" data-name="Path 47682" d="M313.514,170.266c-2.424-6.281-.762-27.717,0-33.809s3.012-10.732,3.254-11.874-.283-1.487-.283-1.487c12.6-19.386,30.472-22.159,48.6-27.83l-1.042-.515c-10.244-.812-26.149-.695-40.024,12.765-16,15.523-33.87,24.926-31.882,75.149l16.833-4.062s26.11,1.511,49.012-4.985C332.513,178.62,315.936,176.546,313.514,170.266Z" transform="translate(-291.981 -94.473)" fill="#0c0835"/>
          <path id="Path_47683" data-name="Path 47683" d="M381.841,143.6c-7.483,11.681-16.743,22.582-52.094,27.659-23.55,3.383-27.273-1.45-27.273-1.45s41.1-2.738,57.71-11.165S381.841,143.6,381.841,143.6Z" transform="translate(-291.867 -93.937)" fill="#0c0835"/>
        </g>
        <g id="Group_26833" data-name="Group 26833">
          <path id="Path_47684" data-name="Path 47684" d="M314.1,124.019c4.575-13.387,27.512-28.5,54.1-28.871a55.185,55.185,0,0,0-29.542,2.585c-15.88,5.908-27.309,15.545-33.6,26.422S314.1,124.019,314.1,124.019Z" transform="translate(-286.51 -94.216)" fill="#ffa6a4"/>
          <path id="Path_47685" data-name="Path 47685" d="M337.259,101.344c-14.54,5.817-22.618,18.141-22.618,18.141-.733.092-7.366,1.327-7.469,1.347-.755,1.09-1.471,2.193-2.118,3.313-.226.39-.417.746-.588,1.082,2.079-.144,5.128-.281,5.934.076a3.74,3.74,0,0,0,2.024-.153c1-.659,1.668-1.14,1.668-1.14,4.575-13.387,27.512-28.5,54.1-28.871C359.243,95.024,351.8,95.528,337.259,101.344Z" transform="translate(-286.5 -94.206)" fill="#f97068"/>
          <path id="Path_47686" data-name="Path 47686" d="M310.61,170.9c-1.253-24.87,2.261-41.832,5.4-46.448s-9.741-2.608-12.327,1.015c-1.675,2.348-7.341,22.13-5.262,45.606S310.61,170.9,310.61,170.9Z" transform="translate(-286.571 -93.915)" fill="#ffa6a4"/>
          <path id="Path_47687" data-name="Path 47687" d="M313.7,121.776c1.106.42,1.428.974.644,2.173s-4.016,11.725-4.847,21-.416,19.018-.6,20.125-8.306,3.153-10.754,2.039c.071,1.308.161,2.627.279,3.961.154,1.734.352,3.2.585,4.451,2.467.278,5.891.4,9.017.448a49.944,49.944,0,0,0,2.586-5.072c-1.253-24.87,2.261-41.832,5.4-46.448C317.277,122.591,315.926,121.807,313.7,121.776Z" transform="translate(-286.569 -93.915)" fill="#ff4040"/>
          <path id="Path_47688" data-name="Path 47688" d="M308.528,169.183c-3.252-.957-12.914.562-14.484,5.308-3.572,10.795-2.191,36.834,4.554,43.925,2.458,2.584,10.014,2.891,12.764,2.349,6.977-1.376,8.119-12.187,7.132-26.786S313.041,170.511,308.528,169.183Z" transform="translate(-286.635 -93.4)" fill="#ff4040"/>
          <path id="Path_47689" data-name="Path 47689" d="M298.58,218.19c2.458,2.584,10.014,2.891,12.764,2.349,4.01-.791,6.086-4.709,6.944-10.66-3.355,2.879-11.935,1.957-16.272,0,0,0,.712-12.963-1.585-20.274a160.037,160.037,0,0,0-6.605,17.475C294.9,211.93,296.479,215.98,298.58,218.19Z" transform="translate(-286.617 -93.174)" fill="#b1411d"/>
          <path id="Path_47690" data-name="Path 47690" d="M307.37,194.7c.882,13.041-2.2,23.869-6.878,24.185s-9.188-10-10.07-23.04,2.2-23.869,6.878-24.185S306.488,181.661,307.37,194.7Z" transform="translate(-286.655 -93.37)" fill="#ffa6a4"/>
          <path id="Path_47691" data-name="Path 47691" d="M301.371,199.881s-5.98.746-8.286,9.795c1.931,5.572,4.621,9.089,7.377,8.9,2.381-.161,4.344-3.051,5.585-7.56a20.086,20.086,0,0,1-4.021-1.257S302.55,207.655,301.371,199.881Z" transform="translate(-286.625 -93.062)" fill="#ff4040"/>
          <path id="Path_47692" data-name="Path 47692" d="M301.312,196.149c.66,9.768-1.106,17.563-5.456,17.857s-8.41-7.386-9.07-17.153,2.33-17.924,6.679-18.217S300.652,186.382,301.312,196.149Z" transform="translate(-286.694 -93.294)" fill="#ff4040"/>
          <path id="Path_47693" data-name="Path 47693" d="M294.741,210.394c-1.985.134-3.919-1.042-5.632-3.154,1.725,4.125,4.17,6.707,6.721,6.535,3.741-.253,5.565-6.06,5.584-13.893C300.485,206.046,298.28,210.155,294.741,210.394Z" transform="translate(-286.668 -93.062)" fill="#b1411d"/>
        </g>
      </g>
    </g>
  </g>
  <g id="Group_26853" data-name="Group 26853" transform="translate(464.39 124.758)">
    <g id="Group_26846" data-name="Group 26846" transform="translate(0 17.264)">
      <g id="Group_26837" data-name="Group 26837" transform="translate(6.983 19.343)">
        <path id="Path_47694" data-name="Path 47694" d="M503.409,246.56c-.9,3.324,1.958,6.278,2.882,6.832s7.2,3.139,11.079,3.232,9.6-8.125,7.57-9.048-16.249-1.939-17.818-1.939A11.82,11.82,0,0,0,503.409,246.56Z" transform="translate(-503.235 -196.305)" fill="#ffc5c7"/>
        <path id="Path_47695" data-name="Path 47695" d="M513.609,244.947c.969,9.971,4.432,17.726,5.678,17.864s13.618-4.015,17.056-5.539.793-24.924-1.308-24.512-6.968,4.907-10.875,7.063S513.609,244.947,513.609,244.947Z" transform="translate(-503.121 -196.446)" fill="#fff"/>
        <path id="Path_47696" data-name="Path 47696" d="M533.157,248.915c-1.309,2-11.269,7.053-16.685,8.9,1.091,2.945,2.19,4.756,2.784,4.822,1.066.119,10.289-2.909,15.078-4.739A68.746,68.746,0,0,0,533.157,248.915Z" transform="translate(-503.09 -196.27)" fill="#dcedff"/>
        <path id="Path_47697" data-name="Path 47697" d="M503.427,246.552c-.383,3.956,3.139,4.524,7.478,3.508s12-10.617,15.418-14.956,9.763-12.071,11.009-12.764,4.016-1.059,6.648-4.962.138-12.071-.9-13.041-10.779,2.268-12,3.9.023,10.43-.392,11.538-9.163,10.156-12.856,12.371S503.7,243.69,503.427,246.552Z" transform="translate(-503.233 -196.759)" fill="#ffc5c7"/>
        <path id="Path_47698" data-name="Path 47698" d="M537.423,210.822c1.158-.553,1.611-3.069.875-2.626s-1.964.434-3.627.411a13.76,13.76,0,0,1-2.334-.167,14.852,14.852,0,0,0-.306,1.983S536.265,211.376,537.423,210.822Z" transform="translate(-502.92 -196.715)" fill="#fe8a8b"/>
        <path id="Path_47699" data-name="Path 47699" d="M545,211.383c-.586-1.26-1.04-2.215-1.04-2.215l-7,6.293a37.035,37.035,0,0,0-3.76-2.965l-.65,1.026a19.7,19.7,0,0,1,1.527,6.5s.923,1.108,1.477,1.2c0,0-7.8,11.079-12.694,16.526-4.865,5.415-8.267,10.1-10.484,11.6,4.431-2.451,10.812-10.445,13.847-14.3,3.416-4.34,9.763-12.071,11.009-12.764s4.016-1.059,6.648-4.962A9.617,9.617,0,0,0,545,211.383Z" transform="translate(-503.135 -196.704)" fill="#fe8a8b"/>
        <path id="Path_47700" data-name="Path 47700" d="M531.137,212.149c.032.646,6.12,6.278,6.753,6.925a.974.974,0,0,0,.7,0c1.839-1.518,10.381-15.22,10.552-15.715.159-.461-4.507-5.174-5.945-6.435a1.381,1.381,0,0,0-1.217.141C540.269,199.351,531.1,211.315,531.137,212.149Z" transform="translate(-502.93 -196.839)" fill="#0c0835"/>
        <path id="Path_47701" data-name="Path 47701" d="M531.828,212.149c.032.646,6.12,6.278,6.753,6.925s11.066-15.18,11.25-15.715c.16-.461-5.08-5.1-6.517-6.359a.438.438,0,0,0-.644.065C540.959,199.351,531.787,211.315,531.828,212.149Z" transform="translate(-502.922 -196.838)" fill="#252384"/>
        <path id="Path_47702" data-name="Path 47702" d="M532.977,211.223c.03.6,5.725,5.872,6.317,6.477s10.352-14.2,10.525-14.7c.149-.432-4.752-4.769-6.1-5.948a.409.409,0,0,0-.6.06C541.519,199.249,532.938,210.443,532.977,211.223Z" transform="translate(-502.91 -196.837)" fill="#57aff7"/>
        <path id="Path_47703" data-name="Path 47703" d="M537.418,203.481a8.032,8.032,0,0,0,2.6-3.353c.162-.692.139-1.315-.392-1.454s-2.354,2.031-3.231,2.677-1.985,1.985-1.639,2.885,2.215.554,2.423.416S537.418,203.481,537.418,203.481Z" transform="translate(-502.891 -196.819)" fill="#ffc5c7"/>
        <path id="Path_47704" data-name="Path 47704" d="M539.905,198.854c.262.787-2.047,3.947-3.935,4.855l.621.775s.312-.069.715-.162a5.593,5.593,0,0,0,.1-.844,8.033,8.033,0,0,0,2.6-3.353A1.505,1.505,0,0,0,539.905,198.854Z" transform="translate(-502.877 -196.817)" fill="#fe8a8b"/>
        <path id="Path_47705" data-name="Path 47705" d="M534.871,206.623c1.8-.925,3.148-.822,4.117-1.2s1.246-1.835.624-2.077-4.57.381-5.609.831-1.67,2.523-1.67,2.523Z" transform="translate(-502.917 -196.768)" fill="#ffc5c7"/>
        <path id="Path_47706" data-name="Path 47706" d="M535.694,205.532a2.2,2.2,0,0,1-1.315,0c0,.382-.375.573-.822,1.117l1.3-.038c1.8-.925,3.148-.822,4.117-1.2a1.552,1.552,0,0,0,.866-.975C539.365,205.232,536.682,205.348,535.694,205.532Z" transform="translate(-502.903 -196.756)" fill="#fe8a8b"/>
        <path id="Path_47707" data-name="Path 47707" d="M530.778,208.215c.831,1.279,5.4.725,6.324.586s1.538-.716,1.487-1.3c-.1-1.173-6.1-.965-6.611-.78S530.778,208.215,530.778,208.215Z" transform="translate(-502.934 -196.732)" fill="#ffc5c7"/>
        <path id="Path_47708" data-name="Path 47708" d="M538.519,207.773a7.113,7.113,0,0,1-3.81,1.1,15.358,15.358,0,0,1-2.4.043,18.871,18.871,0,0,0,4.781-.125A1.655,1.655,0,0,0,538.519,207.773Z" transform="translate(-502.917 -196.719)" fill="#fe8a8b"/>
      </g>
      <g id="Group_26840" data-name="Group 26840" transform="translate(0 128.037)">
        <g id="Group_26838" data-name="Group 26838" transform="translate(56.536 139.599)">
          <path id="Path_47709" data-name="Path 47709" d="M552.856,468.737c.276,2.423,1.245,3.324,4.778,3.808s8.724.416,11.424-2.216,4.362-5.677,4.569-6.994.139-2.769.554-3.461,2.612-1.124,2.341-4.986S552.856,468.737,552.856,468.737Z" transform="translate(-552.246 -442.319)" fill="#ffdcdc"/>
          <path id="Path_47710" data-name="Path 47710" d="M575.729,445.848c-.4-5.362-13.1-3.293-13.173-1.146s-3.046,11.147-5.97,13.881l0,.006c-3.828,1.741-5.271,6.1-3.725,10.278,1.311,3.545,11.147,2.687,13.5,1.385,2.481-1.373,4.935-4.967,5.671-6.913h0c.533-1.147.765-2.85,1.943-4.3s1.8-1.177,2.354-2.908S576.127,451.21,575.729,445.848Z" transform="translate(-552.252 -442.449)" fill="#ff4040"/>
          <path id="Path_47711" data-name="Path 47711" d="M564.769,445.6c-1.222,5.53-3.859,9.131-3.086,9.774s5.53,1.415,6.429,0,2.443-7.394,2.443-9.774S564.769,445.6,564.769,445.6Z" transform="translate(-552.151 -442.426)" fill="#ffdcdc"/>
        </g>
        <g id="Group_26839" data-name="Group 26839" transform="translate(0 130.981)">
          <path id="Path_47712" data-name="Path 47712" d="M537.368,450.248a16.589,16.589,0,0,0-1.69-9.955c-2.039-4.016-1.939-4.362-4.293-4.778s-10.939-1.592-10.939-1.592a14.234,14.234,0,0,1-6.509,6.785c-5.055,2.77-6.093,3.738-9.347,3.738s-10.447.383-7.616,9c0,0,2.285.993,8.009.946s11.54-.508,13.617-1.292,4.247-1.2,5.493-.692,5.308.323,7.616,0A21.726,21.726,0,0,0,537.368,450.248Z" transform="translate(-496.327 -433.924)" fill="#ff4040"/>
          <path id="Path_47713" data-name="Path 47713" d="M510.069,442.35a.565.565,0,0,0-.285.853c.681,1.057,2.1,2.216,2.853,1.952.923-.323,5.2-3.561,7.478-5.539,1.061-.924,2.077-2.678,1.477-3.508s-2.169-1.8-2.815-1.293-1.892,2.944-4.524,5.118A13.317,13.317,0,0,1,510.069,442.35Z" transform="translate(-496.181 -433.916)" fill="#ffdcdc"/>
          <path id="Path_47714" data-name="Path 47714" d="M496.966,453.273c5.677.554,18.756-.553,21.425-1.245s4.124-1.87,6.686-.9,10.455-.554,11.7-1.038.9,1.466,0,1.667-6.578,1.4-9.487,1.668-3.046-1.881-6.508-.288-9.14,1.592-11.633,1.592-9.624.554-10.94,0S496.966,453.273,496.966,453.273Z" transform="translate(-496.32 -433.748)" fill="#ffdcdc"/>
        </g>
        <path id="Path_47715" data-name="Path 47715" d="M561.89,447.456c3.884,1.059,14.957.693,15.51-.831s-1.522-25.481-1.522-33.1-2.631-26.45-2.216-28.527.415-3.6-.277-7.2-.965-45.33-4.293-73.442l-43.206,4.063s-6.924,26.588-7.478,45.422.092,27.88,0,30.65,1.178,5.539,1.466,7.755-.081,18.65-.451,24.557-.638,16.8-1.242,18.1,13.06,3.877,14.906,2.954,1.847-1.108,1.847-10.709,1.292-32.682,1.292-36.744,1.293-4.8.739-6.832,1.477-11.264,3.508-18.1,4.432-14.217,4.432-14.217,5.724,36.928,7.57,39.144,1.477,7.94,2.585,11.263,4.432,25.85,4.432,32.682S557.828,446.348,561.89,447.456Z" transform="translate(-496.088 -304.358)" fill="#710193"/>
        <path id="Path_47716" data-name="Path 47716" d="M570.909,448a26.757,26.757,0,0,0,4.753-.58c.461-1.97.952-4.45,1.463-7.33-.426-8.061-1.429-21.261-1.429-26.559,0-7.616-2.631-26.45-2.216-28.527s.415-3.6-.277-7.2-.965-45.33-4.293-73.442l-8.694.818-25.442,9.567a193.9,193.9,0,0,0,26.527-1.577s1.99,22.508,2.056,25.831,2.468,34.356,2.468,37.212,1.108,3.681,1.293,6.776a4.279,4.279,0,0,1-2.216,4.2s3.324,1.108,3.324,1.662.693,9.463.693,12.926,1.508,8.17,1.931,18.557,1.808,22.71,1.808,24.1C572.655,445.78,572.65,447.187,570.909,448Z" transform="translate(-495.907 -304.358)" fill="#6c2469"/>
        <path id="Path_47717" data-name="Path 47717" d="M542.989,330.064l-9.278-2.354,7.2,3.462-5.817.138,4.457,1.591s1.389,11.571-1.5,19.32c-3.17,8.494-4.617,30.189-5.585,31.85S529,385.319,529,385.319s2.631.277,2.77,2.216-.554,7.339-.554,13.063a174.847,174.847,0,0,1-1.108,18.665c-.554,3.862-.813,13.311-1.108,15.822s-4.069,1.924-4.069,1.924h0a48.5,48.5,0,0,0,5.429.743c5.7.537,4.519-1.575,4.511-12.8.142-10.458,1.278-31,1.278-34.806,0-4.063,1.293-4.8.739-6.832s1.477-11.264,3.508-18.1S544.829,351,544.829,351s-1.009-9.444-1.147-11.66S542.989,330.064,542.989,330.064Z" transform="translate(-496.014 -304.103)" fill="#6c2469"/>
      </g>
      <g id="Group_26841" data-name="Group 26841" transform="translate(26.304 36.677)">
        <path id="Path_47718" data-name="Path 47718" d="M550.765,225.947c-9.971,4.893-11.535,4.7-15.825,6.924s-4.762,25.573-4.762,29.174-.047,17.911-.876,21.787-4.016,18.28-5.124,20.5-3.185,5.954-.554,8.17,8.429,3.739,21.317,2.908,27.29-8.724,27.982-9.832-4.57-21.465-4.57-25.342a50.718,50.718,0,0,0-.83-8.587c-.277-1.8,4.418-10.248,5.463-15.648s8-20.3,7.083-23.029-10.912-5.769-17.619-9.24S550.765,225.947,550.765,225.947Z" transform="translate(-522.347 -213.891)" fill="#fff"/>
        <path id="Path_47719" data-name="Path 47719" d="M548.207,229.766a7.2,7.2,0,0,0,.137,1.751,4.164,4.164,0,0,0,.609,1.583,3.2,3.2,0,0,0,2.782,1.477,9.256,9.256,0,0,0,3.353-.67c1.1-.4,2.152-.929,3.228-1.441-.48.35-.979.673-1.475,1.008-.529.274-1.04.589-1.592.828a8.2,8.2,0,0,1-3.534.829l-.468-.022-.464-.105a3.317,3.317,0,0,1-.89-.339,3.273,3.273,0,0,1-1.306-1.35A5.128,5.128,0,0,1,548.207,229.766Z" transform="translate(-522.066 -213.813)" fill="#dcedff"/>
        <path id="Path_47720" data-name="Path 47720" d="M572.591,305.287c.692-1.108-4.57-21.465-4.57-25.342a50.693,50.693,0,0,0-.83-8.586c-.277-1.8,4.418-10.249,5.463-15.649a30.625,30.625,0,0,1,1.01-3.566l-4.1-3.23c-3.058,7.092-5.551,19.555-8.182,22.6s-8.724,4.293-8.724,4.293,5.829,1.385,8.453.831c0,0,1.964,10.94,1.6,16.341s-1.458,13.572-1.6,14.68c-.054.413-.067,1.855-.063,3.5C567.439,308.7,572.2,305.913,572.591,305.287Z" transform="translate(-522.015 -213.603)" fill="#dcedff"/>
        <path id="Path_47721" data-name="Path 47721" d="M561.781,213.985c-.321,5.778-.229,9.748.971,10.856,0,0-2.9,9.59-11.632,8.771-2.955-.277-2.309-5.263-.647-7.571l-.369-7.088Z" transform="translate(-522.055 -213.985)" fill="#ffc5c7"/>
        <path id="Path_47722" data-name="Path 47722" d="M562.145,223.823h0c-.623-1.772-.632-5.226-.375-9.838l-11.677,4.969.237,4.545h0C552.269,224.4,562.145,223.823,562.145,223.823Z" transform="translate(-522.043 -213.985)" fill="#fe8a8b"/>
      </g>
      <g id="Group_26842" data-name="Group 26842" transform="translate(51.514 55.656)">
        <path id="Path_47723" data-name="Path 47723" d="M589.56,260.217c1.754,2.677,3.877,9.324,2.677,12.371s-12.279,16.618-17.265,21.7-6.093,5.909-7.016,7.571-5.355,8.516-6.463,9.555a5.579,5.579,0,0,1-2.977,1.177,5.253,5.253,0,0,1-4.143,1.246,16.689,16.689,0,0,1-4.3,2.008s-.693,1.176-1.315,1.281-1.316-1.142,0-3.635,3.254-3.531,3.67-5.123a35.112,35.112,0,0,1,2.093-4.841s-3.478,3.318-5.485,3.526-2.191-.969-1.026-1.939a28.229,28.229,0,0,0,4.142-4.293,8.342,8.342,0,0,1,5.747-3.461c2.562-.347,4.362-.624,5.055-1.108s4.351-5.193,6.988-10.271,5.138-11.567,11.314-17.264l-2.215-4.432Z" transform="translate(-547.284 -232.459)" fill="#ffc5c7"/>
        <path id="Path_47724" data-name="Path 47724" d="M550.146,315a11.772,11.772,0,0,1,2.655-3.668l.422-.387c.125-.12.341-.273.391-.345.217-.253.413-.586.626-.887.411-.623.813-1.258,1.262-1.869a16.768,16.768,0,0,1-.893,2.083,6.9,6.9,0,0,1-.588,1.006,4.6,4.6,0,0,1-.436.413l-.4.383c-.536.511-1.047,1.048-1.563,1.584S550.628,314.418,550.146,315Z" transform="translate(-547.253 -231.939)" fill="#fe8a8b"/>
        <path id="Path_47725" data-name="Path 47725" d="M554.438,312.824c.436-.746.935-1.392,1.389-2.071.472-.67.9-1.343,1.334-2.084a4.571,4.571,0,0,1-.879,2.4A6.11,6.11,0,0,1,554.438,312.824Z" transform="translate(-547.206 -231.93)" fill="#fe8a8b"/>
        <path id="Path_47726" data-name="Path 47726" d="M556.421,313.132a4.98,4.98,0,0,0,2-1.063,5.579,5.579,0,0,0,2.977-1.177,29.764,29.764,0,0,0,2.559-3.44c-.022.025-1.275,1.286-2.185,2.326a2.954,2.954,0,0,1-2.933.981l.324-1.35S557.815,312.474,556.421,313.132Z" transform="translate(-547.185 -231.943)" fill="#fe8a8b"/>
        <path id="Path_47727" data-name="Path 47727" d="M592.322,269.105c-.147,1.264-.235,2.269-2.35,5.584-2.381,3.731-16.2,19.456-19.18,22.365s-2.907,3.092-4.879,7.687c.833-1.3,1.533-2.431,1.84-2.984.923-1.662,2.031-2.493,7.016-7.571s16.065-18.649,17.265-21.7A7.673,7.673,0,0,0,592.322,269.105Z" transform="translate(-547.081 -232.362)" fill="#fe8a8b"/>
        <path id="Path_47728" data-name="Path 47728" d="M582.505,265.514l.9,1.717a6.422,6.422,0,0,0-2.508,1.425l-1.761-3.411Z" transform="translate(-546.936 -232.404)" fill="#fe8a8b"/>
        <path id="Path_47729" data-name="Path 47729" d="M571.147,256.481c-2.269-5.205-2.713-13.658,0-18.107s7.34-6.05,8.408-5.517,3.56,7.474,6.139,10.677,9.61,12.19,9.788,12.946-6.052,6.86-17.261,11.344C576.886,268.359,571.147,256.481,571.147,256.481Z" transform="translate(-547.044 -232.759)" fill="#fff"/>
        <path id="Path_47730" data-name="Path 47730" d="M578.925,260.34,580.4,263.9s-7.929-8.574-11.014-14.971a24.375,24.375,0,0,0,1.758,7.376s5.739,11.877,7.073,11.344c1.918-.767,3.679-1.583,5.3-2.41Z" transform="translate(-547.043 -232.583)" fill="#dcedff"/>
      </g>
      <g id="Group_26845" data-name="Group 26845" transform="translate(41.415)">
        <path id="Path_47731" data-name="Path 47731" d="M567.86,206.856c2.037-4.976,4.53-10.238,1.391-13.008,0,0,3.508-1.108,5.354-.738a14.369,14.369,0,0,0-5.539-1.478s.726-8.4-1.206-12c0,0,.006,3.693-1.01,5.17a12.644,12.644,0,0,0-8.032-6c-6-1.661-11.817-1.846-15.972,2.4s-9.019,9.692-2.017,17.91a32.78,32.78,0,0,0,20.2,10.895C565,210.559,567.86,206.856,567.86,206.856Z" transform="translate(-537.294 -177.704)" fill="#252384"/>
        <path id="Path_47732" data-name="Path 47732" d="M546.356,190.931a22.379,22.379,0,0,0,4.268,1.346c1.451.328,2.91.621,4.38.848s2.945.426,4.424.565a19.531,19.531,0,0,0,4.467,0,11.1,11.1,0,0,1-4.5.86,26.669,26.669,0,0,1-9.016-1.451A11.992,11.992,0,0,1,546.356,190.931Z" transform="translate(-537.195 -177.56)" fill="#0c0835"/>
        <path id="Path_47733" data-name="Path 47733" d="M562.523,198.069c1.6-.4,4.252-2.958,4.252-2.958s-2.748,1.942-8.4,1.479a48.139,48.139,0,0,1-9.425-1.637s5.824,3.418,7.97,3.969S562.523,198.069,562.523,198.069Z" transform="translate(-537.167 -177.516)" fill="#0c0835"/>
        <path id="Path_47734" data-name="Path 47734" d="M542.961,194.342c-2.623-1.3-3.386.019-3.386,1.127a11.686,11.686,0,0,0,1.23,3.465Z" transform="translate(-537.269 -177.528)" fill="#0c0835"/>
        <path id="Path_47735" data-name="Path 47735" d="M570.376,198.363c-2.094,4.144-6.759,7.353-6.759,7.353s-1.823,2.458.223,3.454c.085.041.181.078.274.115a9.742,9.742,0,0,0,3.466-2.656C568.741,203.8,570.046,200.87,570.376,198.363Z" transform="translate(-537.015 -177.479)" fill="#0c0835"/>
        <path id="Path_47736" data-name="Path 47736" d="M563.862,205.76s2.146-1.592,3.6,0-1.315,9-4.569,7.2c0,0-5.4,6.855-9.14,8.793s-6.231.969-7.478-.415-5.428-7.064-5.817-13.086c-.138-2.146.485-6.37.485-7.27s-.554-4.432.207-5.47a2.927,2.927,0,0,1,1.8-1.178,29.321,29.321,0,0,0,8.656,2.631,15.706,15.706,0,0,1-2.563-2.008s7.963,2.769,13.572,3.116a31.077,31.077,0,0,0,.207,4.569A18.435,18.435,0,0,0,563.862,205.76Z" transform="translate(-537.26 -177.523)" fill="#ffc5c7"/>
        <path id="Path_47737" data-name="Path 47737" d="M566.511,207.654c-.193-1.358-1.331-1.626-2.262-.679-.953.969-1.324,4.041-1.131,4.493s1.714.421,2.069-.517-.485-1.525-1.358-1.247a3.346,3.346,0,0,1,.622-2.249c.761-.88,1.463-.544,1.625-.317A6.254,6.254,0,0,0,566.511,207.654Z" transform="translate(-537.012 -177.391)" fill="#fe8a8b"/>
        <g id="Group_26844" data-name="Group 26844" transform="translate(5.329 21.545)">
          <path id="Path_47738" data-name="Path 47738" d="M557.688,201.723a10.743,10.743,0,0,0-.978-.858,6.637,6.637,0,0,0-1.124-.7,3.62,3.62,0,0,0-1.27-.438,2.791,2.791,0,0,0-1.334.175v.062a6.25,6.25,0,0,0,.625.206l.6.169c.388.116.8.152,1.19.286a8.115,8.115,0,0,1,1.147.5c.378.191.74.417,1.106.644Z" transform="translate(-542.451 -199.009)" fill="#0c0835"/>
          <path id="Path_47739" data-name="Path 47739" d="M542.6,200.176a4.8,4.8,0,0,1,1.2-.426,6.523,6.523,0,0,1,1.248-.147c.421-.009.83.077,1.245.074a12.114,12.114,0,0,0,1.3-.032l.017-.06a2.966,2.966,0,0,0-1.252-.526,3.889,3.889,0,0,0-1.351.049,5.629,5.629,0,0,0-1.3.346,4.437,4.437,0,0,0-1.144.67Z" transform="translate(-542.565 -199.017)" fill="#0c0835"/>
          <path id="Path_47740" data-name="Path 47740" d="M553.4,204.12c.058-.586.385-1.033.731-1s.579.537.522,1.123-.385,1.032-.732,1S553.336,204.705,553.4,204.12Z" transform="translate(-542.447 -198.972)" fill="#0c0835"/>
          <path id="Path_47741" data-name="Path 47741" d="M544.3,203.388c.058-.585.334-1.037.617-1.01s.465.526.407,1.112-.335,1.037-.618,1.01S544.241,203.974,544.3,203.388Z" transform="translate(-542.546 -198.98)" fill="#0c0835"/>
          <path id="Path_47742" data-name="Path 47742" d="M550.151,209.74a2.612,2.612,0,0,1-2.855-.028,1.206,1.206,0,0,0,.664,1.051,1.786,1.786,0,0,0,1.332-.072C549.709,210.506,549.869,210.1,550.151,209.74Z" transform="translate(-542.513 -198.9)" fill="#fe8a8b"/>
          <g id="Group_26843" data-name="Group 26843" transform="translate(2.546 13.737)">
            <path id="Path_47743" data-name="Path 47743" d="M553.134,213.146a78.749,78.749,0,0,1-8.05-.541c.454,1.957,1.879,3.89,4.066,3.891C551.118,216.5,552.537,214.88,553.134,213.146Z" transform="translate(-545.084 -212.605)" fill="#c31f2a"/>
            <path id="Path_47744" data-name="Path 47744" d="M551.146,215.827a3.462,3.462,0,0,0-1.863-.018,2.9,2.9,0,0,0-2.488-.245,3.486,3.486,0,0,0,4.351.263Z" transform="translate(-545.065 -212.574)" fill="#fb8384"/>
            <path id="Path_47745" data-name="Path 47745" d="M546.268,214.241a9.52,9.52,0,0,0,5.948-.229c.033-.289.077-.58.12-.871-1.907-.04-4.98-.272-6.622-.456A5.169,5.169,0,0,0,546.268,214.241Z" transform="translate(-545.077 -212.604)" fill="#fff"/>
          </g>
        </g>
      </g>
    </g>
    <g id="Group_26852" data-name="Group 26852" transform="translate(79.308)">
      <g id="Group_26847" data-name="Group 26847" transform="translate(5.055 5.055)" opacity="0.25" style="mix-blend-mode: multiply;isolation: isolate">
        <path id="Path_47746" data-name="Path 47746" d="M600.556,190.154A19.624,19.624,0,0,1,602,187.072a7.241,7.241,0,0,1,2.322-2.4,9.4,9.4,0,0,1,4.017-1.307q.772-.1,2.19-.241a22.38,22.38,0,0,0,2.948-.485,10.029,10.029,0,0,0,2.755-1.05,3.611,3.611,0,0,0,1.681-1.912,2.644,2.644,0,0,0,.067-1.717,3.414,3.414,0,0,0-.912-1.491,4.562,4.562,0,0,0-1.6-.991,4.037,4.037,0,0,0-2.564-.183,6.308,6.308,0,0,0-2.03.981c-.583.43-1.1.779-1.559,1.055l-5.222-7.674a12.139,12.139,0,0,1,4.326-3.03,13.641,13.641,0,0,1,5.2-1,15.894,15.894,0,0,1,5.584,1.037,17.536,17.536,0,0,1,4.247,2.3,13.538,13.538,0,0,1,3.382,3.569,10.815,10.815,0,0,1,1.656,4.78,12.943,12.943,0,0,1-.9,5.943,15.616,15.616,0,0,1-1.226,2.587,9.8,9.8,0,0,1-1.686,2.118,10.135,10.135,0,0,1-2.261,1.605,12.638,12.638,0,0,1-2.9,1.074,24.731,24.731,0,0,1-4.22.681,21.726,21.726,0,0,0-3.633.535,2.671,2.671,0,0,0-2.019,1.667Zm-3.769,10.7.194-.525a4.847,4.847,0,0,1,6.229-2.858h0a4.846,4.846,0,0,1,2.858,6.229l-.2.525a4.845,4.845,0,0,1-6.228,2.858h0A4.847,4.847,0,0,1,596.787,200.857Z" transform="translate(-579.595 -165.627)" fill="#00264f"/>
        <path id="Path_47747" data-name="Path 47747" d="M584.762,191.05a14.325,14.325,0,0,1-.166-2.478,5.284,5.284,0,0,1,.635-2.35,6.852,6.852,0,0,1,2.1-2.253c.3-.226.74-.537,1.311-.927a16.324,16.324,0,0,0,1.709-1.352,7.327,7.327,0,0,0,1.387-1.644,2.632,2.632,0,0,0,.4-1.814,1.921,1.921,0,0,0-.563-1.119,2.485,2.485,0,0,0-1.109-.629,3.331,3.331,0,0,0-1.373-.066,2.949,2.949,0,0,0-1.7.789,4.606,4.606,0,0,0-.948,1.344c-.22.48-.429.887-.622,1.223l-6.043-3.05a8.844,8.844,0,0,1,1.689-3.461,9.938,9.938,0,0,1,2.964-2.478,11.573,11.573,0,0,1,3.93-1.311,12.758,12.758,0,0,1,3.524-.031,9.864,9.864,0,0,1,3.418,1.082,7.9,7.9,0,0,1,2.746,2.465,9.455,9.455,0,0,1,1.525,4.11,11.414,11.414,0,0,1,.131,2.084,7.15,7.15,0,0,1-.328,1.947,7.41,7.41,0,0,1-.875,1.824,9.243,9.243,0,0,1-1.471,1.709,18,18,0,0,1-2.452,1.926,15.884,15.884,0,0,0-2.129,1.625,1.946,1.946,0,0,0-.7,1.776Zm1.377,8.16-.061-.4a3.534,3.534,0,0,1,2.964-4.024h0a3.535,3.535,0,0,1,4.024,2.965l.062.4a3.536,3.536,0,0,1-2.965,4.024h0A3.536,3.536,0,0,1,586.139,199.21Z" transform="translate(-579.778 -165.586)" fill="#00264f"/>
      </g>
      <g id="Group_26851" data-name="Group 26851">
        <g id="Group_26850" data-name="Group 26850">
          <g id="Group_26848" data-name="Group 26848" transform="translate(16.888)">
            <path id="Path_47748" data-name="Path 47748" d="M595.556,185.154A19.624,19.624,0,0,1,597,182.072a7.242,7.242,0,0,1,2.322-2.4,9.4,9.4,0,0,1,4.017-1.307q.772-.1,2.19-.241a22.383,22.383,0,0,0,2.948-.485,10.03,10.03,0,0,0,2.755-1.05,3.611,3.611,0,0,0,1.681-1.912,2.643,2.643,0,0,0,.067-1.717,3.414,3.414,0,0,0-.912-1.491,4.563,4.563,0,0,0-1.6-.991,4.037,4.037,0,0,0-2.564-.183,6.307,6.307,0,0,0-2.03.981c-.583.43-1.1.779-1.559,1.055l-5.222-7.674a12.139,12.139,0,0,1,4.326-3.03,13.641,13.641,0,0,1,5.2-1,15.894,15.894,0,0,1,5.584,1.037,17.536,17.536,0,0,1,4.247,2.3,13.537,13.537,0,0,1,3.382,3.569,10.815,10.815,0,0,1,1.656,4.78,12.943,12.943,0,0,1-.9,5.943,15.616,15.616,0,0,1-1.226,2.587,9.8,9.8,0,0,1-1.686,2.118,10.135,10.135,0,0,1-2.261,1.605,12.637,12.637,0,0,1-2.9,1.074,24.731,24.731,0,0,1-4.22.681,21.725,21.725,0,0,0-3.633.535,2.671,2.671,0,0,0-2.019,1.667Zm-3.769,10.7.194-.525a4.847,4.847,0,0,1,6.229-2.858h0a4.846,4.846,0,0,1,2.858,6.229l-.2.525a4.845,4.845,0,0,1-6.228,2.858h0A4.847,4.847,0,0,1,591.787,195.857Z" transform="translate(-591.483 -160.627)" fill="#710193"/>
          </g>
          <g id="Group_26849" data-name="Group 26849" transform="translate(0 3.749)">
            <path id="Path_47749" data-name="Path 47749" d="M579.762,186.05a14.325,14.325,0,0,1-.166-2.478,5.285,5.285,0,0,1,.635-2.35,6.851,6.851,0,0,1,2.1-2.253c.3-.226.74-.537,1.311-.927a16.319,16.319,0,0,0,1.709-1.352,7.327,7.327,0,0,0,1.387-1.644,2.633,2.633,0,0,0,.4-1.814,1.922,1.922,0,0,0-.563-1.119,2.485,2.485,0,0,0-1.109-.629,3.33,3.33,0,0,0-1.373-.066,2.949,2.949,0,0,0-1.7.789,4.606,4.606,0,0,0-.948,1.344c-.22.48-.429.887-.622,1.223l-6.043-3.05a8.844,8.844,0,0,1,1.689-3.461,9.938,9.938,0,0,1,2.964-2.478,11.573,11.573,0,0,1,3.93-1.311,12.758,12.758,0,0,1,3.524-.031,9.864,9.864,0,0,1,3.418,1.082,7.9,7.9,0,0,1,2.746,2.465,9.456,9.456,0,0,1,1.524,4.11,11.42,11.42,0,0,1,.131,2.084,7.152,7.152,0,0,1-.328,1.947,7.41,7.41,0,0,1-.875,1.824,9.24,9.24,0,0,1-1.471,1.709,18.006,18.006,0,0,1-2.451,1.926,15.885,15.885,0,0,0-2.129,1.625,1.946,1.946,0,0,0-.7,1.776Zm1.377,8.16-.061-.4a3.534,3.534,0,0,1,2.964-4.024h0a3.535,3.535,0,0,1,4.024,2.965l.062.4a3.536,3.536,0,0,1-2.965,4.024h0A3.536,3.536,0,0,1,581.139,194.21Z" transform="translate(-574.778 -164.335)" fill="#710193"/>
          </g>
        </g>
      </g>
    </g>
  </g>
  <g id="Group_26867" data-name="Group 26867" transform="translate(100.705 280.444)">
    <g id="Group_26859" data-name="Group 26859" transform="translate(460.607)">
      <g id="Group_26855" data-name="Group 26855" transform="translate(0 18.166)">
        <path id="Path_47750" data-name="Path 47750" d="M612.173,414.713c4.911.008,9.057-5.05,8.944-11.049a43.294,43.294,0,0,0-1.722-11.407c-2.457-8.318-7.517-16.359-5.69-25.146.752-3.618,2.657-6.965,2.71-10.661.056-3.81-1.866-7.09-3.777-9.992A169.416,169.416,0,0,0,602.483,332.6c-.873,8.262-4.842,15.62-7.6,23.336s-4.189,17.2-.266,23.737c2.8,4.671,8.1,7.483,8.719,13.318.251,2.377-.377,4.8-.511,7.208-.379,6.871,3.847,13.431,9.349,14.513Z" transform="translate(-592.202 -332.601)" fill="#00a36c"/>
        <g id="Group_26854" data-name="Group 26854" transform="translate(3.866 13.842)">
          <path id="Path_47751" data-name="Path 47751" d="M616.013,425.653l-2.123-9.876c-.521-3.316-1.078-6.627-1.7-9.925-1.225-6.6-2.643-13.162-4.415-19.62-.452-1.611-.915-3.221-1.432-4.807-.248-.8-.529-1.582-.8-2.371-.291-.769-.582-1.548-.833-2.427A23.808,23.808,0,0,1,604,371.5c-.1-1.706-.07-3.4-.041-5.093.09-3.38.308-6.738.434-10.085a44.054,44.054,0,0,0,.2-10.025c.975,3.255,1,6.711,1.124,10.074-.127,3.373-.345,6.727-.433,10.07-.028,1.67-.053,3.34.04,4.992a22.461,22.461,0,0,0,.666,4.838c.207.74.5,1.538.8,2.34.275.8.561,1.6.812,2.409.526,1.61.994,3.234,1.449,4.859,1.787,6.513,3.211,13.109,4.44,19.733.628,3.311,1.172,6.635,1.715,9.959C615.524,418.928,615.833,422.284,616.013,425.653Z" transform="translate(-595.94 -346.293)" fill="#3f704d"/>
          <path id="Path_47752" data-name="Path 47752" d="M599.48,356.7c.965.673,1.835,1.363,2.741,2.041.445.344.851.75,1.3,1.112a5.971,5.971,0,0,0,1.443.91l-.16.019c.546-.51,1.036-1.085,1.572-1.606s1.091-1.018,1.654-1.507a21.994,21.994,0,0,1,3.708-2.535l.057.068a21.95,21.95,0,0,1-3.159,3.193c-.582.466-1.18.913-1.78,1.357s-1.263.813-1.861,1.259l-.085.064-.076-.044a17.262,17.262,0,0,0-1.546-.808,9.524,9.524,0,0,1-1.538-.849,7.986,7.986,0,0,1-2.333-2.613Z" transform="translate(-595.989 -346.196)" fill="#3f704d"/>
          <path id="Path_47753" data-name="Path 47753" d="M596.071,370.35a21.519,21.519,0,0,1,2.368.948,15.911,15.911,0,0,1,2.229,1.195,13.846,13.846,0,0,0,2.209,1.249c.771.343,1.6.57,2.393.844l-.4.091a39.581,39.581,0,0,1,2.549-3.052,27.619,27.619,0,0,1,2.937-2.711l.067.059a27.628,27.628,0,0,1-2.321,3.254,39.4,39.4,0,0,1-2.707,2.912l-.2.2-.2-.105c-.759-.4-1.474-.865-2.236-1.235a19.139,19.139,0,0,0-2.369-.944,11.758,11.758,0,0,1-2.29-1.116,13.5,13.5,0,0,1-2.074-1.508Z" transform="translate(-596.026 -346.046)" fill="#3f704d"/>
          <path id="Path_47754" data-name="Path 47754" d="M605.558,388.668a6.458,6.458,0,0,1,1.932.524c.292.139.559.352.855.5a1.7,1.7,0,0,0,.928.208l-.128.063c.2-.356.358-.747.575-1.092s.434-.686.683-1a7.078,7.078,0,0,1,1.838-1.64l.07.055a7.115,7.115,0,0,1-1.165,2.17c-.252.316-.543.6-.818.9s-.628.535-.926.815l-.077.071-.053-.008a9.1,9.1,0,0,0-1.033-.167,4.546,4.546,0,0,1-1.037-.143,3.783,3.783,0,0,1-1.687-1.178Z" transform="translate(-595.922 -345.857)" fill="#3f704d"/>
          <path id="Path_47755" data-name="Path 47755" d="M607.1,404.148a10.485,10.485,0,0,1,1.435-.007,6.841,6.841,0,0,1,1.388.164,6.957,6.957,0,0,0,1.4.287,5.163,5.163,0,0,0,1.407-.158l-.159.058a9.536,9.536,0,0,1,.951-.893,9.839,9.839,0,0,1,1.014-.808,10.284,10.284,0,0,1,2.326-1.221l.054.071a10.289,10.289,0,0,1-1.82,1.894,9.741,9.741,0,0,1-1.058.75,9.64,9.64,0,0,1-1.121.666l-.128.062-.031,0a9.846,9.846,0,0,0-1.441-.146c-.477-.008-.96.1-1.448.136a4.894,4.894,0,0,1-2.79-.766Z" transform="translate(-595.905 -345.689)" fill="#3f704d"/>
        </g>
      </g>
      <g id="Group_26857" data-name="Group 26857" transform="translate(16.213)">
        <path id="Path_47756" data-name="Path 47756" d="M616.54,418.113c3.393,3.495,8.74-.771,12.267-4.815,4.433-5.085,9.2-10.961,9.716-18.148.194-2.7-.249-5.385.154-8.072.924-6.165,5.865-10.451,8.207-16.154,3.394-8.268.762-17.706-2.507-25.346-2.145-5.012-4.625-10.227-4.223-16.12.368-5.384,3.083-10.266,5.7-14.827-6.113.367-13,1.174-17.3,7.009-4.075,5.533-4.284,13.573-3.9,20.68s1.025,14.746-1.967,21.2c-4.062,8.77-14.167,13.95-14.445,23.7-.14,4.92,2.473,8.9,4.26,13.1a17.863,17.863,0,0,1,1.407,9.27c-.5,3.219.291,6.4,2.309,8.229Z" transform="translate(-608.24 -314.631)" fill="#3f704d"/>
        <g id="Group_26856" data-name="Group 26856" transform="translate(7.669 8.56)">
          <path id="Path_47757" data-name="Path 47757" d="M615.883,432.335c.377-2.352.811-4.688,1.209-7.026.364-2.345.758-4.682,1.041-7.028a95.876,95.876,0,0,0,1.842-13.968c.126-2.342.08-4.674.092-7.083a29.47,29.47,0,0,1,.894-7.266,50.9,50.9,0,0,1,2.378-6.862,52.022,52.022,0,0,1,3.355-6.42c2.463-4.115,5.606-7.8,6.591-12.19a18.769,18.769,0,0,0,.191-6.728c-.367-2.242-.951-4.567-1.446-6.9a77.829,77.829,0,0,1-2.023-14.256,27.3,27.3,0,0,1,1.215-7.2,18.973,18.973,0,0,1,3.431-6.312,20.515,20.515,0,0,0-2.479,6.559,25.885,25.885,0,0,0-.285,6.918,76.3,76.3,0,0,0,1.981,13.893c.488,2.309,1.069,4.589,1.469,7.032a20.632,20.632,0,0,1-.22,7.416,22.324,22.324,0,0,1-2.975,6.759c-1.274,2.055-2.625,3.989-3.845,5.988a50.187,50.187,0,0,0-3.233,6.186,49.2,49.2,0,0,0-2.281,6.578,27.547,27.547,0,0,0-.836,6.825c-.012,2.336.035,4.752-.094,7.15A101.1,101.1,0,0,1,620,418.641C618.8,423.272,617.423,427.832,615.883,432.335Z" transform="translate(-615.825 -323.099)" fill="#fff"/>
          <path id="Path_47758" data-name="Path 47758" d="M636.243,334.93a7.594,7.594,0,0,1-.794,2.1,5.9,5.9,0,0,1-1.3,1.758,6.494,6.494,0,0,0-1.445,1.658c-.372.627-.6,1.35-.921,2.012l-.292.609-.636-.538c-.424-.359-.828-.736-1.23-1.115a10.27,10.27,0,0,1-1.119-1.216,12.546,12.546,0,0,1-1.753-2.882l.106-.1a12.513,12.513,0,0,1,2.733,1.976,10.288,10.288,0,0,1,1.123,1.213c.347.431.689.864,1.013,1.315l-.928.07c.5-.543,1.081-1.025,1.524-1.6a6.533,6.533,0,0,0,1-1.958,5.865,5.865,0,0,1,1.146-1.859,7.65,7.65,0,0,1,1.65-1.519Z" transform="translate(-615.707 -322.971)" fill="#fff"/>
          <path id="Path_47759" data-name="Path 47759" d="M641.985,355.189a8.191,8.191,0,0,1-.98,3.1,8.719,8.719,0,0,1-1.987,2.547c-.834.7-1.7,1.327-2.435,2.084-.77.731-1.435,1.562-2.264,2.3l-.434.383-.392-.582-1.371-2.035c-.464-.674-.912-1.353-1.335-2.047l-1.291-2.064a21.915,21.915,0,0,0-1.4-2.023l.084-.116a7.292,7.292,0,0,1,2.126,1.461,14.652,14.652,0,0,1,1.7,1.9,15.442,15.442,0,0,1,1.37,2.121c.4.741.792,1.476,1.123,2.262l-.825-.2a14.746,14.746,0,0,0,2.606-1.691,9.5,9.5,0,0,0,1.96-2.426c.544-.887,1.167-1.679,1.779-2.494s1.172-1.659,1.833-2.526Z" transform="translate(-615.692 -322.749)" fill="#fff"/>
          <path id="Path_47760" data-name="Path 47760" d="M636.512,379.628a10.2,10.2,0,0,1-2.753,2.492,12.2,12.2,0,0,1-3.362,1.519c-1.2.31-2.412.5-3.563.878-1.165.348-2.285.814-3.476,1.189l-.245.077-.261-.26a19.338,19.338,0,0,1-1.971-2.405,15.655,15.655,0,0,1-1.582-2.681,13.873,13.873,0,0,1-1.009-2.974,8.386,8.386,0,0,1-.08-3.138l.144,0a17.592,17.592,0,0,0,.966,2.817c.378.9.858,1.758,1.312,2.623l1.46,2.566c.494.853,1.053,1.688,1.577,2.513l-.505-.182a18.46,18.46,0,0,0,3.546-.566A14.931,14.931,0,0,0,630,382.637c1.044-.588,2.132-1.03,3.2-1.529s2.109-1.034,3.216-1.589Z" transform="translate(-615.801 -322.539)" fill="#fff"/>
          <path id="Path_47761" data-name="Path 47761" d="M628.311,401.391a4.533,4.533,0,0,1-1.559,1.326,5.4,5.4,0,0,1-1.928.635,13.018,13.018,0,0,1-2.022-.1,14.212,14.212,0,0,0-1.982.048l-.082.005-.148-.138a16.73,16.73,0,0,1-1.508-1.5c-.457-.532-.928-1.053-1.333-1.624a15.316,15.316,0,0,1-1.089-1.8,11.612,11.612,0,0,1-.834-1.993l.115-.085a11.727,11.727,0,0,1,1.653,1.39,15.357,15.357,0,0,1,1.4,1.576c.424.557.781,1.163,1.154,1.757a16.96,16.96,0,0,1,.979,1.885l-.228-.132a4.189,4.189,0,0,0,1.875.091,14.421,14.421,0,0,0,1.805-.6c.588-.176,1.179-.3,1.776-.44.61-.124,1.19-.311,1.877-.424Z" transform="translate(-615.826 -322.301)" fill="#fff"/>
        </g>
      </g>
      <g id="Group_26858" data-name="Group 26858" transform="translate(4.561 96.651)">
        <path id="Path_47762" data-name="Path 47762" d="M635.57,449.365H605.176a3.6,3.6,0,0,1-3.557-3.057l-4.864-31.928a3.6,3.6,0,0,1,3.558-4.142h40.119a3.6,3.6,0,0,1,3.558,4.142l-4.864,31.928A3.6,3.6,0,0,1,635.57,449.365Z" transform="translate(-596.714 -410.238)" fill="#6f7378"/>
        <path id="Path_47763" data-name="Path 47763" d="M640.08,410.238h-6.205a3.6,3.6,0,0,1,3.558,4.142l-4.864,31.928a3.6,3.6,0,0,1-3.557,3.057h6.205a3.6,3.6,0,0,0,3.557-3.057l4.864-31.928A3.6,3.6,0,0,0,640.08,410.238Z" transform="translate(-596.361 -410.238)" fill="#404852"/>
      </g>
    </g>
    <g id="Group_27730" data-name="Group 27730" transform="translate(-42.896 20.439)">
      <g id="Group_26855-2" data-name="Group 26855" transform="translate(23.381 15.432)">
        <path id="Path_47750-2" data-name="Path 47750" d="M599.8,402.353c-4.172.007-7.694-4.289-7.6-9.386a36.776,36.776,0,0,1,1.462-9.69c2.087-7.066,6.386-13.9,4.834-21.361-.639-3.073-2.257-5.917-2.3-9.056-.047-3.237,1.585-6.022,3.208-8.488a143.919,143.919,0,0,1,8.626-11.771c.742,7.019,4.113,13.269,6.458,19.823s3.559,14.607.226,20.164c-2.38,3.967-6.885,6.357-7.407,11.313-.213,2.019.32,4.075.434,6.123.322,5.837-3.268,11.409-7.942,12.328Z" transform="translate(-592.202 -332.601)" fill="#00a36c"/>
        <g id="Group_26854-2" data-name="Group 26854" transform="translate(3.434 11.758)">
          <path id="Path_47751-2" data-name="Path 47751" d="M603.933,413.706l1.8-8.389c.442-2.817.915-5.629,1.442-8.431,1.041-5.6,2.245-11.181,3.75-16.667.384-1.369.777-2.736,1.217-4.083.21-.678.449-1.344.678-2.014.247-.654.495-1.315.708-2.062a20.224,20.224,0,0,0,.607-4.358c.081-1.45.059-2.889.035-4.326-.076-2.871-.262-5.724-.368-8.567a37.425,37.425,0,0,1-.173-8.516,33.931,33.931,0,0,0-.955,8.557c.108,2.866.293,5.714.368,8.554.024,1.419.045,2.837-.034,4.24a19.082,19.082,0,0,1-.566,4.11c-.176.629-.425,1.306-.684,1.988-.234.681-.477,1.36-.69,2.046-.447,1.368-.844,2.747-1.231,4.128-1.518,5.533-2.727,11.135-3.772,16.763-.533,2.812-1,5.636-1.456,8.46C604.348,407.994,604.086,410.845,603.933,413.706Z" transform="translate(-603.139 -346.293)" fill="#3f704d"/>
          <path id="Path_47752-2" data-name="Path 47752" d="M609.869,356.461c-.82.572-1.559,1.158-2.328,1.734-.378.292-.723.637-1.1.945a5.072,5.072,0,0,1-1.225.773l.136.016c-.464-.433-.88-.921-1.335-1.365s-.927-.865-1.4-1.28a18.683,18.683,0,0,0-3.15-2.154l-.048.058A18.648,18.648,0,0,0,602.1,357.9c.495.4,1,.775,1.512,1.152s1.073.69,1.581,1.069l.072.054.064-.038a14.655,14.655,0,0,1,1.313-.686,8.091,8.091,0,0,0,1.306-.721,6.784,6.784,0,0,0,1.982-2.22Z" transform="translate(-594.989 -347.541)" fill="#3f704d"/>
          <path id="Path_47753-2" data-name="Path 47753" d="M608.218,370.133a18.288,18.288,0,0,0-2.011.805,13.527,13.527,0,0,0-1.894,1.015,11.757,11.757,0,0,1-1.876,1.061c-.655.291-1.359.484-2.033.717l.338.077a33.6,33.6,0,0,0-2.165-2.593,23.47,23.47,0,0,0-2.495-2.3l-.057.05A23.47,23.47,0,0,0,598,371.728a33.465,33.465,0,0,0,2.3,2.474l.167.167.173-.089c.645-.336,1.252-.735,1.9-1.049a16.258,16.258,0,0,1,2.012-.8,9.988,9.988,0,0,0,1.945-.948,11.467,11.467,0,0,0,1.762-1.281Z" transform="translate(-590.41 -349.488)" fill="#3f704d"/>
          <path id="Path_47754-2" data-name="Path 47754" d="M611.252,388.3a5.487,5.487,0,0,0-1.641.445c-.248.118-.475.3-.727.428a1.446,1.446,0,0,1-.788.177l.109.053c-.171-.3-.3-.635-.489-.927s-.368-.583-.581-.854a6.012,6.012,0,0,0-1.561-1.393l-.059.046a6.044,6.044,0,0,0,.989,1.844c.214.269.461.512.695.764s.533.454.787.692l.065.06.045-.007a7.731,7.731,0,0,1,.878-.142,3.861,3.861,0,0,0,.881-.121,3.214,3.214,0,0,0,1.433-1Z" transform="translate(-601.592 -351.934)" fill="#3f704d"/>
          <path id="Path_47755-2" data-name="Path 47755" d="M615.413,403.76a8.911,8.911,0,0,0-1.219-.006,5.811,5.811,0,0,0-1.179.139,5.909,5.909,0,0,1-1.187.244,4.386,4.386,0,0,1-1.2-.134l.135.049a8.1,8.1,0,0,0-.808-.758,8.345,8.345,0,0,0-.861-.686,8.734,8.734,0,0,0-1.976-1.037l-.045.06a8.743,8.743,0,0,0,1.546,1.609,13.751,13.751,0,0,0,1.851,1.2l.109.052.027,0a8.361,8.361,0,0,1,1.224-.124c.405-.007.816.084,1.23.116a4.157,4.157,0,0,0,2.37-.651Z" transform="translate(-607.076 -354.101)" fill="#3f704d"/>
        </g>
      </g>
      <g id="Group_26857-2" data-name="Group 26857" transform="translate(0)">
        <path id="Path_47756-2" data-name="Path 47756" d="M635.361,402.536c-2.882,2.969-7.425-.655-10.42-4.09-3.766-4.319-7.815-9.311-8.253-15.416-.165-2.294.211-4.575-.13-6.857-.785-5.237-4.982-8.878-6.971-13.722-2.883-7.024-.648-15.041,2.13-21.531,1.822-4.258,3.929-8.687,3.587-13.694-.313-4.574-2.619-8.721-4.841-12.6,5.193.312,11.044,1,14.695,5.954,3.462,4.7,3.639,11.53,3.309,17.567s-.871,12.527,1.671,18.011c3.45,7.45,12.034,11.85,12.271,20.136.119,4.18-2.1,7.563-3.619,11.125a15.175,15.175,0,0,0-1.2,7.875c.427,2.734-.247,5.433-1.961,6.99Z" transform="translate(-608.24 -314.631)" fill="#3f704d"/>
        <g id="Group_26856-2" data-name="Group 26856" transform="translate(5.322 7.272)">
          <path id="Path_47757-2" data-name="Path 47757" d="M632.607,415.892c-.32-2-.689-3.982-1.027-5.968-.309-1.992-.644-3.977-.885-5.97a81.444,81.444,0,0,1-1.565-11.865c-.107-1.99-.068-3.971-.078-6.016a25.03,25.03,0,0,0-.759-6.173,43.227,43.227,0,0,0-2.02-5.829,44.174,44.174,0,0,0-2.85-5.454c-2.092-3.5-4.762-6.63-5.6-10.355a15.949,15.949,0,0,1-.162-5.715c.312-1.9.808-3.88,1.228-5.862a66.11,66.11,0,0,0,1.719-12.11,23.192,23.192,0,0,0-1.032-6.113,16.119,16.119,0,0,0-2.915-5.362,17.429,17.429,0,0,1,2.106,5.572,21.99,21.99,0,0,1,.242,5.876,64.825,64.825,0,0,1-1.683,11.8c-.415,1.961-.908,3.9-1.248,5.973a17.524,17.524,0,0,0,.187,6.3,18.964,18.964,0,0,0,2.527,5.742c1.082,1.746,2.23,3.389,3.266,5.086a42.629,42.629,0,0,1,2.746,5.255,41.8,41.8,0,0,1,1.937,5.588,23.4,23.4,0,0,1,.71,5.8c.01,1.985-.03,4.037.08,6.074a85.868,85.868,0,0,0,1.579,12.1C630.125,408.193,631.3,412.066,632.607,415.892Z" transform="translate(-610.321 -323.099)" fill="#fff"/>
          <path id="Path_47758-2" data-name="Path 47758" d="M626.757,334.918a6.451,6.451,0,0,0,.674,1.782,5.009,5.009,0,0,0,1.1,1.493,5.517,5.517,0,0,1,1.227,1.408c.316.532.511,1.146.782,1.709l.248.517.54-.457c.36-.3.7-.625,1.045-.947a8.734,8.734,0,0,0,.951-1.033,10.659,10.659,0,0,0,1.489-2.448l-.09-.082a10.631,10.631,0,0,0-2.321,1.679,8.739,8.739,0,0,0-.954,1.031c-.294.366-.586.734-.86,1.117l.788.059c-.421-.461-.918-.871-1.294-1.363a5.548,5.548,0,0,1-.849-1.663,4.982,4.982,0,0,0-.974-1.579,6.5,6.5,0,0,0-1.4-1.291Z" transform="translate(-621.867 -324.759)" fill="#fff"/>
          <path id="Path_47759-2" data-name="Path 47759" d="M628.095,355.181a6.958,6.958,0,0,0,.832,2.633,7.406,7.406,0,0,0,1.688,2.163c.708.593,1.44,1.128,2.069,1.77.654.621,1.219,1.327,1.924,1.951l.368.325.333-.495,1.164-1.729c.394-.573.775-1.149,1.134-1.739l1.1-1.754a18.608,18.608,0,0,1,1.189-1.718l-.071-.1a6.194,6.194,0,0,0-1.806,1.241,12.446,12.446,0,0,0-1.443,1.616,13.121,13.121,0,0,0-1.164,1.8c-.341.63-.672,1.254-.954,1.922l.7-.17a12.525,12.525,0,0,1-2.214-1.437,8.073,8.073,0,0,1-1.665-2.061c-.462-.753-.991-1.426-1.511-2.119s-1-1.409-1.557-2.146Z" transform="translate(-628.095 -327.625)" fill="#fff"/>
          <path id="Path_47760-2" data-name="Path 47760" d="M618.1,378.83a8.663,8.663,0,0,0,2.338,2.117,10.363,10.363,0,0,0,2.856,1.291c1.017.264,2.049.423,3.026.746.989.3,1.941.691,2.953,1.01l.208.065.222-.221a16.418,16.418,0,0,0,1.674-2.043,13.3,13.3,0,0,0,1.344-2.277,11.783,11.783,0,0,0,.857-2.526,7.124,7.124,0,0,0,.068-2.666l-.122,0a14.941,14.941,0,0,1-.821,2.393c-.321.766-.729,1.493-1.115,2.228l-1.24,2.179c-.42.725-.895,1.434-1.34,2.135l.429-.155a15.682,15.682,0,0,1-3.013-.481,12.685,12.685,0,0,1-2.8-1.239c-.887-.5-1.811-.875-2.72-1.3s-1.791-.879-2.732-1.35Z" transform="translate(-613.355 -330.335)" fill="#fff"/>
          <path id="Path_47761-2" data-name="Path 47761" d="M615.826,400.6a3.85,3.85,0,0,0,1.324,1.127,4.583,4.583,0,0,0,1.638.539,11.06,11.06,0,0,0,1.718-.085,12.069,12.069,0,0,1,1.684.04l.07,0,.125-.118a14.21,14.21,0,0,0,1.281-1.271c.388-.452.788-.895,1.133-1.379a13.014,13.014,0,0,0,.925-1.533,9.868,9.868,0,0,0,.708-1.693l-.1-.072a9.963,9.963,0,0,0-1.4,1.181,13.054,13.054,0,0,0-1.188,1.339c-.36.473-.664.988-.98,1.492a14.41,14.41,0,0,0-.831,1.6l.194-.112a3.558,3.558,0,0,1-1.593.077,12.244,12.244,0,0,1-1.534-.508c-.5-.149-1-.251-1.509-.374-.518-.106-1.011-.265-1.595-.36Z" transform="translate(-604.096 -333.42)" fill="#fff"/>
        </g>
      </g>
      <g id="Group_26858-2" data-name="Group 26858" transform="translate(3.874 82.102)">
        <path id="Path_47762-2" data-name="Path 47762" d="M603.9,443.475h25.818a3.057,3.057,0,0,0,3.022-2.6l4.131-27.122a3.058,3.058,0,0,0-3.023-3.518H599.772a3.058,3.058,0,0,0-3.023,3.518l4.131,27.122A3.057,3.057,0,0,0,603.9,443.475Z" transform="translate(-596.714 -410.238)" fill="#6f7378"/>
        <path id="Path_47763-2" data-name="Path 47763" d="M632.07,410.238h5.271a3.058,3.058,0,0,0-3.023,3.518l4.131,27.122a3.056,3.056,0,0,0,3.022,2.6H636.2a3.057,3.057,0,0,1-3.022-2.6l-4.131-27.122A3.058,3.058,0,0,1,632.07,410.238Z" transform="translate(-629.012 -410.238)" fill="#404852"/>
      </g>
    </g>
  </g>
  <g id="Group_26871" data-name="Group 26871" transform="translate(0 7.873)">
    <g id="Group_26868" data-name="Group 26868" transform="translate(0 183.028)">
      <rect id="Rectangle_18435" data-name="Rectangle 18435" width="84.259" height="50.465" rx="6.849" transform="translate(0 0.001)" fill="orchid"/>
      <path id="Path_47777" data-name="Path 47777" d="M116.668,299.992H41.5a4.546,4.546,0,0,1-4.546-4.546l42.129-27.963,42.129,27.963A4.545,4.545,0,0,1,116.668,299.992Z" transform="translate(-36.955 -249.527)" fill="#710193"/>
      <path id="Path_47778" data-name="Path 47778" d="M116.668,249.721H41.5a4.546,4.546,0,0,0-4.546,4.546L79.084,282.23l42.129-27.963A4.546,4.546,0,0,0,116.668,249.721Z" transform="translate(-36.955 -249.721)" fill="#fafdff"/>
    </g>
    <g id="Group_26869" data-name="Group 26869" transform="translate(403.089)">
      <path id="Path_47779" data-name="Path 47779" d="M613.319,68.671H445.172a9.485,9.485,0,0,0-9.484,9.484v39.327a9.485,9.485,0,0,0,9.484,9.485h16.889l-5.756,14.208,19.138-14.208H613.319a9.485,9.485,0,0,0,9.484-9.485V78.155A9.485,9.485,0,0,0,613.319,68.671Z" transform="translate(-435.688 -68.671)" fill="orchid"/>
      <path id="Path_47780" data-name="Path 47780" d="M602.021,89.9H473.872a2.216,2.216,0,0,1,0-4.432H602.021a2.216,2.216,0,1,1,0,4.432Zm2.216,7.737a2.215,2.215,0,0,0-2.216-2.215H456.075a2.215,2.215,0,1,0,0,4.431H602.021A2.215,2.215,0,0,0,604.237,97.635Zm-64.074,9.954a2.216,2.216,0,0,0-2.216-2.216H456.075a2.215,2.215,0,1,0,0,4.431h81.872A2.216,2.216,0,0,0,540.163,107.589Z" transform="translate(-435.49 -68.488)" fill="#fff"/>
    </g>
    <path id="Path_47781" data-name="Path 47781" d="M646,242.092a19.777,19.777,0,0,0-3,24.088l-33.251,33.25a1.745,1.745,0,0,0,0,2.466l4.435,4.435a1.743,1.743,0,0,0,2.466,0l2.362-2.362,6.144,6.144a1.744,1.744,0,0,0,2.466,0l3.632-3.632a1.744,1.744,0,0,0,0-2.467l-6.143-6.143,3.181-3.181,5.249,5.249a1.743,1.743,0,0,0,2.466,0l3.632-3.632a1.742,1.742,0,0,0,0-2.466l-5.249-5.25L649.9,273.08a19.779,19.779,0,1,0-3.9-30.989Zm21.789,21.79a11.027,11.027,0,1,1,0-15.6A11.028,11.028,0,0,1,667.788,263.882Z" transform="translate(-30.704 -66.84)" fill="orchid"/>
    <g id="Group_26870" data-name="Group 26870" transform="translate(75.407 243.784)">
      <path id="Path_47782" data-name="Path 47782" d="M95.282,360.744a27.193,27.193,0,0,1-1.189-4.574,10.063,10.063,0,0,1,.353-4.62,13.035,13.035,0,0,1,3.131-4.959q.731-.8,2.124-2.2a31.1,31.1,0,0,0,2.716-3.133,13.934,13.934,0,0,0,2.011-3.567,5.018,5.018,0,0,0,.1-3.53,3.665,3.665,0,0,0-1.452-1.893,4.743,4.743,0,0,0-2.3-.783,6.349,6.349,0,0,0-2.589.364,5.608,5.608,0,0,0-2.9,2.078,8.791,8.791,0,0,0-1.3,2.848c-.242.976-.486,1.811-.728,2.509l-12.382-3.56a16.807,16.807,0,0,1,1.931-7.071,18.923,18.923,0,0,1,4.663-5.685,22.026,22.026,0,0,1,6.883-3.845,24.3,24.3,0,0,1,6.577-1.309,18.776,18.776,0,0,1,6.775.812,15.02,15.02,0,0,1,6.008,3.633,17.978,17.978,0,0,1,4.308,7.147,21.72,21.72,0,0,1,.987,3.849,13.662,13.662,0,0,1,.078,3.757,14.119,14.119,0,0,1-.991,3.721,17.561,17.561,0,0,1-2.144,3.717,34.2,34.2,0,0,1-3.9,4.47,30.18,30.18,0,0,0-3.4,3.794,3.709,3.709,0,0,0-.677,3.57Zm5.468,14.772-.258-.733a6.727,6.727,0,0,1,4.116-8.577h0a6.726,6.726,0,0,1,8.577,4.115l.257.733a6.726,6.726,0,0,1-4.115,8.577h0A6.726,6.726,0,0,1,100.75,375.516Z" transform="translate(-80.882 -317.777)" fill="#fff"/>
    </g>
  </g>
</svg>
